<?xml version="1.0" encoding="UTF-8"?>
<svg version="1.1" xmlns="http://www.w3.org/2000/svg" width="512" height="512" >
<path d="M0 0 C0.886875 0.61875 1.77375 1.2375 2.6875 1.875 C12.63665274 11.01746468 18.48952754 24.28689767 19.12792969 37.68481445 C19.96149334 70.66741259 19.96149334 70.66741259 10 85 C8.74722657 86.28864016 7.47672923 87.5603328 6.1875 88.8125 C1.36615682 93.87809625 1.93469409 100.35745613 2 107 C2.88816406 107.20753906 3.77632812 107.41507812 4.69140625 107.62890625 C13.16531231 109.67256271 21.56962992 111.93276761 29.9375 114.375 C30.895354 114.64256104 31.85320801 114.91012207 32.84008789 115.18579102 C42.75929293 118.14028294 49.86054674 122.60257738 55.55859375 131.328125 C57.96919455 135.79655576 60 140.85475449 60 146 C75.5206975 148.50828792 95.03741877 151.51530158 109.17529297 143.112854 C116.8402736 137.51574768 123.4555911 130.89509875 129.875 123.9375 C130.33785149 123.4361277 130.80070297 122.9347554 131.27758026 122.41819 C137.05895241 116.11870629 142.62107601 109.64652577 148 103 C146.79307495 102.32142944 146.79307495 102.32142944 145.56176758 101.62915039 C131.192524 93.42513673 123.14270125 84.2328249 117.83984375 68.57421875 C116.44642213 62.53364177 116.59037012 56.28988374 116.57446289 50.12133789 C116.56265487 47.96577155 116.51345331 45.81316026 116.46289062 43.65820312 C116.27393011 27.54383988 120.96462783 14.66536142 132.12890625 2.72265625 C142.55487658 -7.29298967 155.84412139 -10.86166894 170 -11 C183.30955607 -9.90962024 195.12996098 -4.24978992 204.33203125 5.4609375 C214.85152218 18.14678 217.52907717 31.1849395 217.375 47.5 C217.38660156 48.72847656 217.39820313 49.95695312 217.41015625 51.22265625 C217.36448863 65.57751228 214.26967528 79.00709089 204.13671875 89.625 C202.78761189 90.95957139 202.78761189 90.95957139 203 93 C204.19012534 94.06609243 205.42878608 95.07832997 206.6875 96.0625 C212.60386404 101.08721344 215.48601642 106.43008212 217 114 C217 119.28 217 124.56 217 130 C227.89 130 238.78 130 250 130 C250.0679652 144.49157476 250.12292528 158.98304245 250.15543652 173.47474098 C250.17084416 180.20489878 250.19181538 186.93494983 250.22631836 193.66503906 C250.25908128 200.16842141 250.27688864 206.67169327 250.28463173 213.17515182 C250.29014494 215.64766553 250.30091033 218.12017367 250.31719017 220.59263992 C250.45660765 242.65790158 249.22070562 262.14196167 233.33227539 278.93603516 C224.65231813 287.59977922 213.32828563 293.92797516 201 295 C201.1139209 295.64767334 201.2278418 296.29534668 201.34521484 296.96264648 C203.13859951 307.82020765 204.18958214 318.75045718 205.28710938 329.69604492 C205.62737945 333.08620682 205.97347358 336.47573884 206.3203125 339.86523438 C206.53940265 342.0260072 206.75816463 344.18681334 206.9765625 346.34765625 C207.07965729 347.35804459 207.18275208 348.36843292 207.28897095 349.40943909 C207.42944351 350.81757118 207.42944351 350.81757118 207.57275391 352.25415039 C207.69694199 353.48773033 207.69694199 353.48773033 207.82363892 354.74623108 C207.98632896 356.82529381 208 358.9145816 208 361 C238.03 361 268.06 361 299 361 C299 366.61 299 372.22 299 378 C130.04 378 -38.92 378 -213 378 C-213 372.39 -213 366.78 -213 361 C-188.58 361 -164.16 361 -139 361 C-139 317.77 -139 274.54 -139 230 C-144.61 230 -150.22 230 -156 230 C-156 213.17 -156 196.34 -156 179 C-145.11 179 -134.22 179 -123 179 C-123.07867426 168.91907727 -123.07867426 168.91907727 -123.18017578 158.83837891 C-123.23152051 145.73884754 -122.3033494 135.04137207 -113.14453125 124.95703125 C-104.3442008 116.71879775 -92.76534939 114.33861773 -81.4375 111.25 C-79.93667231 110.83527415 -78.43601961 110.41991448 -76.93554688 110.00390625 C-73.29234031 108.99528778 -69.64687512 107.99526845 -66 107 C-65.89986179 104.77696946 -65.82865083 102.55262434 -65.76953125 100.328125 C-65.72675049 99.0896582 -65.68396973 97.85119141 -65.63989258 96.57519531 C-66.15536951 91.45747048 -68.49773774 89.03452208 -71.89453125 85.3671875 C-78.89178394 77.50014645 -81.30256475 67.28039837 -81.3359375 56.984375 C-81.3459227 55.87875214 -81.3459227 55.87875214 -81.35610962 54.75079346 C-81.36616369 53.20123765 -81.37092891 51.65163917 -81.37060547 50.10205078 C-81.3749643 47.76910559 -81.41131814 45.43807877 -81.44921875 43.10546875 C-81.56338103 28.00348764 -77.82512998 15.00739643 -67.25 3.75 C-48.30207181 -14.08334418 -20.70011508 -15.65339281 0 0 Z M-55.7265625 17.921875 C-62.90845136 27.04959582 -64.19178867 35.77379126 -64.25 47.125 C-64.270625 48.10726562 -64.29125 49.08953125 -64.3125 50.1015625 C-64.37391228 61.76989561 -61.78916654 70.81135854 -53.9375 79.5625 C-47.36571409 85.81472761 -40.3933511 88.29140728 -31.375 88.5625 C-25.0665602 88.3260134 -20.33466033 87.37091726 -15 84 C-14.30390625 83.57589844 -13.6078125 83.15179688 -12.890625 82.71484375 C-6.30771944 78.27261988 -1.42949768 72.04345589 0.61621094 64.2824707 C1.53083232 58.84303349 1.41238309 53.31310365 1.4375 47.8125 C1.48680664 45.93594727 1.48680664 45.93594727 1.53710938 44.02148438 C1.59972853 33.0859029 -0.77595839 24.37459052 -8 16 C-15.85398833 9.48254123 -24.10424197 6.37744325 -34.30078125 6.71875 C-43.00401379 7.62559912 -49.89171723 11.42697936 -55.7265625 17.921875 Z M142.203125 17.88671875 C132.58192167 30.00848235 132.99289124 45.40386203 134.2734375 60.1484375 C135.81977344 69.39727699 140.66720449 77.19109821 148 83 C156.86324652 88.46068934 166.59600647 89.60778283 176.82421875 87.38671875 C185.35176251 84.34786093 191.89310069 78.74831956 196 70.6875 C199.13908496 63.74445446 199.25308043 57.52669642 199.29516602 50.0234375 C199.30663616 48.60178637 199.32700889 47.18017661 199.35668945 45.75878906 C199.53056946 37.42420555 199.44386058 30.29697961 195 23 C194.55398438 22.20207031 194.10796875 21.40414062 193.6484375 20.58203125 C188.77290128 13.8071297 181.25603716 8.65120743 173 7 C160.88868067 6.05380318 150.78936746 8.87116417 142.203125 17.88671875 Z M-17.8984375 103.4375 C-27.71781155 105.66776792 -37.06226687 105.20718667 -47 104 C-47.42656834 108.94819269 -47.60487682 111.05710378 -44.875 115.3125 C-39.77593619 120.07901617 -35.45208896 121.68650406 -28.53515625 121.48828125 C-23.27717217 120.47557245 -19.7353439 116.9651383 -16.2890625 113.0625 C-14.81624742 110.70599587 -14.67540237 109.49195251 -14.8125 106.75 C-14.874375 105.5125 -14.93625 104.275 -15 103 C-16.16228969 102.96257223 -16.16228969 102.96257223 -17.8984375 103.4375 Z M166 110 C163.75346916 112.47921175 163.75346916 112.47921175 161.73901367 115.3034668 C160.93123512 116.37344552 160.12077287 117.44140199 159.30802917 118.50761414 C158.8815679 119.06842871 158.45510662 119.62924328 158.01572227 120.20705223 C125.3540667 162.42696986 125.3540667 162.42696986 99.9342432 165.87860203 C81.32206932 167.85516664 62.12684764 166.72276418 43.56208801 164.63398743 C42.81671941 164.55815335 42.0713508 164.48231928 41.30339527 164.4041872 C39.30649234 164.19664653 37.31286661 163.95821812 35.31970215 163.71740723 C31.82378176 163.71413657 31.82378176 163.71413657 29.05627441 166.26208496 C26.64696356 168.91256655 26.64696356 168.91256655 26.9375 172.625 C28.14234188 176.45214481 28.59397707 177.08215717 32 179 C34.68012529 179.56159501 37.19320751 179.95995497 39.90307617 180.24511719 C40.70071884 180.33580538 41.49836151 180.42649357 42.32017517 180.51992989 C52.91644508 181.66207284 63.54099596 182.31348169 74.1875 182.75 C75.21441956 182.79374001 76.24133911 182.83748001 77.29937744 182.88254547 C102.97708582 183.84831169 123.94758041 182.32904705 143.68346214 164.65377808 C148.37640474 160.28761143 152.73698968 155.65840701 157 150.875 C157.5978619 150.20581039 158.1957238 149.53662079 158.81170273 148.84715271 C174.74750572 132.72289605 174.74750572 132.72289605 182.875 113.375 C181.86358951 110.62974296 181.15365196 109.01007516 179 107 C173.10135671 105.2192775 170.75108739 106.35125983 166 110 Z M-75.03149414 127.57055664 C-77.15911605 128.1793779 -79.29114511 128.7705223 -81.42382812 129.36132812 C-92.57663715 132.51537824 -99.03395508 134.55942139 -105 145 C-105 156.22 -105 167.44 -105 179 C-66.72 179 -28.44 179 11 179 C10.505 175.04 10.505 175.04 10 171 C10.35284163 163.64378667 12.90716583 158.26340757 18 153 C25.02122036 147.19986144 33.25383389 146.68105392 42 146 C41.62875 144.948125 41.2575 143.89625 40.875 142.8125 C40.66617188 142.22082031 40.45734375 141.62914062 40.2421875 141.01953125 C36.68576713 135.23755222 31.34279563 133.0250979 25.1171875 131.25390625 C24.38049835 131.03427719 23.6438092 130.81464813 22.88479614 130.58836365 C21.33891147 130.13176049 19.79082365 129.68255633 18.24072266 129.24047852 C15.86825342 128.56056654 13.50674157 127.84940652 11.14453125 127.13476562 C9.63596946 126.69341861 8.12687121 126.25390022 6.6171875 125.81640625 C5.91294647 125.60303116 5.20870544 125.38965607 4.48312378 125.16981506 C1.55932133 124.35499984 -0.4327885 123.81075346 -3.35986328 124.78735352 C-5.28195604 126.20846616 -7.01336786 127.73165802 -8.75 129.375 C-16.34699303 136.17827734 -23.68855967 138.39612458 -33.7734375 138.2734375 C-42.96925185 137.4941312 -50.37319224 133.27726185 -57 127 C-57.66 126.01 -58.32 125.02 -59 124 C-64.49230825 124 -69.77744794 126.0586915 -75.03149414 127.57055664 Z M198 124 C197.79445999 124.50525711 197.58891998 125.01051422 197.37715149 125.53108215 C193.73624159 133.20099431 187.7760519 138.19975128 181.54479027 143.71665001 C178.17583466 146.72643829 174.88795646 149.82332763 171.58789062 152.90820312 C167.41833722 156.80380505 163.23265717 160.6682454 158.93286133 164.42016602 C140.19524564 180.23079973 140.19524564 180.23079973 132.17822266 202.43212891 C131.72955952 211.72549178 132.69226776 220.80915953 134 230 C126.08 230 118.16 230 110 230 C110 234.95 110 239.9 110 245 C119.0845188 245.11335593 128.16856119 245.20491893 137.25362968 245.25906086 C141.47306657 245.28505782 145.69199086 245.32027193 149.91113281 245.37719727 C153.98957417 245.43187439 158.06752524 245.46149484 162.14630508 245.47438622 C163.69554478 245.48356261 165.24476029 245.50148103 166.79378891 245.52865028 C175.66522337 245.67793882 183.58357951 245.58324783 191 240 C197.74595141 232.83001705 199.30034267 226.61102056 199.22705078 216.97729492 C199.22734283 215.97194702 199.22763489 214.96659912 199.22793579 213.93078613 C199.22654452 210.61392531 199.21099266 207.29729024 199.1953125 203.98046875 C199.19158165 201.67833072 199.18873502 199.37619109 199.18673706 197.0740509 C199.17910627 191.01925257 199.15946243 184.96455041 199.1373291 178.90979004 C199.11685881 172.7295868 199.1077328 166.549368 199.09765625 160.36914062 C199.0762161 148.24605153 199.04208674 136.12303377 199 124 C198.67 124 198.34 124 198 124 Z M217 147 C216.98018066 149.3104834 216.96036133 151.6209668 216.93994141 154.00146484 C216.87281053 161.66496805 216.79517524 169.3283395 216.71247292 176.99168968 C216.6626859 181.63456656 216.61635534 186.2774226 216.578125 190.92041016 C216.54104864 195.4073969 216.49463031 199.89420149 216.44193649 204.38103104 C216.42351058 206.08646043 216.40835987 207.79192868 216.39665604 209.49741745 C216.28999486 224.51287437 215.62323387 238.73329407 204.83984375 250.33984375 C192.59518128 261.38863685 178.47923222 262.44482528 162.63671875 262.51171875 C161.10828758 262.52861058 159.57986992 262.54676667 158.0514679 262.56611633 C154.07488227 262.61313468 150.0983514 262.64325269 146.12158203 262.66955566 C142.04513738 262.69960769 137.96888074 262.74605165 133.89257812 262.79101562 C125.92846347 262.87649904 117.96436636 262.94256543 110 263 C110 267.95 110 272.9 110 278 C121.56176612 278.09291128 133.1234426 278.1638721 144.68550682 278.20724869 C150.05495825 278.22807324 155.42415319 278.25629689 160.79345703 278.30175781 C165.98061246 278.34539886 171.16752203 278.36917567 176.35484695 278.37950897 C178.32829276 278.38686765 180.30172597 278.40123711 182.27506638 278.42292023 C196.65819682 278.80460788 196.65819682 278.80460788 210 274 C210.89074219 273.53078125 211.78148437 273.0615625 212.69921875 272.578125 C220.63678388 267.27601863 226.42413336 260.91424574 230 252 C230.34231659 251.16910858 230.68463318 250.33821716 231.037323 249.48214722 C232.28016357 244.98660631 232.26395806 240.87173768 232.22705078 236.23095703 C232.22734283 235.26447739 232.22763489 234.29799774 232.22793579 233.30223083 C232.22654699 230.12066544 232.21100684 226.93933678 232.1953125 223.7578125 C232.19158078 221.54678475 232.18873456 219.33575534 232.18673706 217.12472534 C232.17911319 211.31489469 232.15947532 205.50516456 232.1373291 199.69537354 C232.11684388 193.76307536 232.10772961 187.83076088 232.09765625 181.8984375 C232.07622832 170.26558091 232.04210735 158.63279883 232 147 C227.05 147 222.1 147 217 147 Z M-138 197 C-138 201.95 -138 206.9 -138 212 C-53.85 212 30.3 212 117 212 C117 207.05 117 202.1 117 197 C32.85 197 -51.3 197 -138 197 Z M-122 230 C-122 234.95 -122 239.9 -122 245 C-113.75 245 -105.5 245 -97 245 C-97 250.94 -97 256.88 -97 263 C-105.25 263 -113.5 263 -122 263 C-122 295.34 -122 327.68 -122 361 C-115.73 361 -109.46 361 -103 361 C-92.72230465 345.09246103 -92.72230465 345.09246103 -87 328 C-15.72 328.495 -15.72 328.495 57 329 C62.28 339.56 67.56 350.12 73 361 C79.27 361 85.54 361 92 361 C92 328.66 92 296.32 92 263 C34.91 263 -22.18 263 -81 263 C-81 257.06 -81 251.12 -81 245 C-23.91 245 33.18 245 92 245 C92 240.05 92 235.1 92 230 C21.38 230 -49.24 230 -122 230 Z M110 296 C110 317.45 110 338.9 110 361 C125.51 361 141.02 361 157 361 C156.1429199 346.3885687 156.1429199 346.3885687 154.80859375 331.83984375 C154.69902847 330.7984877 154.5894632 329.75713165 154.47657776 328.68421936 C154.1338748 325.43491308 153.78580975 322.1862095 153.4375 318.9375 C153.20081223 316.70251202 152.96448172 314.46748617 152.72851562 312.23242188 C152.15710771 306.82108863 151.57841204 301.4106071 151 296 C137.47 296 123.94 296 110 296 Z M168 296 C168.76129557 304.03234585 169.5255679 312.06439133 170.2950964 320.09595203 C170.65229321 323.82526788 171.00817981 327.55469912 171.36108398 331.28442383 C171.70165356 334.88327631 172.04564925 338.48178626 172.39203072 342.08008385 C172.5236291 343.45349149 172.65398901 344.82701838 172.78309441 346.20066261 C172.9640227 348.1234249 173.14974893 350.0457339 173.33569336 351.96801758 C173.49224648 353.61015984 173.49224648 353.61015984 173.65196228 355.28547668 C173.92278656 358.0900498 173.92278656 358.0900498 175 361 C179.95 361 184.9 361 190 361 C189.30968429 346.91597249 187.94045887 332.95570299 186.4375 318.9375 C186.20081223 316.70251202 185.96448172 314.46748617 185.72851562 312.23242188 C185.1564527 306.82117017 184.57958849 301.41045061 184 296 C178.72 296 173.44 296 168 296 Z M-75 345 C-77.64 350.28 -80.28 355.56 -83 361 C-38.12 361 6.76 361 53 361 C50.88214887 354.17504209 50.88214887 354.17504209 46 345 C6.07 345 -33.86 345 -75 345 Z " fill="#ffffff" transform="translate(213,134)"/>
<path d="M0 0 C65.67 0 131.34 0 199 0 C199 27.39 199 54.78 199 83 C159.6875 82.9375 159.6875 82.9375 147.3347168 82.84741211 C143.63854675 82.86395007 143.63854675 82.86395007 139.94245911 82.89234924 C138.31292896 82.89922623 136.68326207 82.88866959 135.0539093 82.86366272 C122.97020943 82.67464946 122.97020943 82.67464946 112.55981445 88.38305664 C111.01004839 89.89199667 109.48569202 91.42793318 108 93 C106.8373963 94.006555 105.662165 94.99892476 104.46875 95.96875 C103.4890625 96.8040625 102.509375 97.639375 101.5 98.5 C97.55427075 101.85536335 93.58355203 105.17224043 89.5625 108.4375 C85.31606701 111.89274897 81.14722561 115.42718703 77 119 C59.57370518 134 59.57370518 134 58 134 C58 117.17 58 100.34 58 83 C38.86 83 19.72 83 0 83 C0 55.61 0 28.22 0 0 Z M17 17 C17 33.17 17 49.34 17 66 C36.14 66 55.28 66 75 66 C75 75.9 75 85.8 75 96 C79.33389642 93.41328477 79.33389642 93.41328477 83.1640625 90.3984375 C83.72351563 89.9125415 84.28296875 89.42664551 84.859375 88.92602539 C85.73335937 88.15826782 85.73335937 88.15826782 86.625 87.375 C87.86632758 86.2971859 89.10852544 85.22037336 90.3515625 84.14453125 C90.96547852 83.6129541 91.57939453 83.08137695 92.21191406 82.53369141 C95.58921747 79.63688365 99.04417304 76.83761593 102.5 74.03515625 C105.09551681 71.9764663 105.09551681 71.9764663 107.71206665 69.41401672 C111.08208358 66.61945865 113.70075841 66.36443633 118.10693359 66.34057617 C118.79055969 66.33009247 119.47418579 66.31960876 120.17852783 66.30880737 C122.41896769 66.28020153 124.65784883 66.28633082 126.8984375 66.29296875 C128.45929894 66.27984474 130.02014342 66.26453835 131.58096313 66.24714661 C135.67450963 66.20736507 139.76761115 66.19711066 143.86132812 66.19311523 C148.7808044 66.18212573 153.70004501 66.13426788 158.61933899 66.09262848 C166.07975846 66.03358823 173.53894575 66.02122907 181 66 C181 49.83 181 33.66 181 17 C126.88 17 72.76 17 17 17 Z " fill="#ffffff" transform="translate(198,0)"/>
<path d="M0 0 C22.11 0 44.22 0 67 0 C67 5.61 67 11.22 67 17 C44.89 17 22.78 17 0 17 C0 11.39 0 5.78 0 0 Z " fill="#ffffff" transform="translate(264,33)"/>
<path d="M0 0 C5.94 0 11.88 0 18 0 C18 5.61 18 11.22 18 17 C12.06 17 6.12 17 0 17 C0 11.39 0 5.78 0 0 Z " fill="#ffffff" transform="translate(346,33)"/>
<path d="M0 0 C5.61 0 11.22 0 17 0 C17 5.61 17 11.22 17 17 C11.39 17 5.78 17 0 17 C0 11.39 0 5.78 0 0 Z " fill="#ffffff" transform="translate(231,33)"/>
</svg>
