<?xml version="1.0" encoding="UTF-8"?>
<svg version="1.1" xmlns="http://www.w3.org/2000/svg" width="512" height="512">
<path d="M0 0 C1.52852852 -0.00856522 1.52852852 -0.00856522 3.0879364 -0.01730347 C4.20020599 -0.01842133 5.31247559 -0.01953918 6.45845032 -0.02069092 C7.6345134 -0.02565582 8.81057648 -0.03062073 10.02227783 -0.03573608 C13.24568884 -0.04783286 16.46906361 -0.05530014 19.6924932 -0.05974674 C21.70940474 -0.06268272 23.72631067 -0.06678858 25.74321938 -0.07125092 C32.06235625 -0.08492076 38.38148021 -0.09458908 44.70063084 -0.09845281 C51.97859782 -0.10292796 59.25637646 -0.12045262 66.5342862 -0.1494534 C72.17013353 -0.17112583 77.8059281 -0.1811601 83.44181663 -0.18249393 C86.80286492 -0.18353828 90.16373606 -0.18936634 93.52474022 -0.20731354 C97.28013134 -0.22441494 101.03506704 -0.22248325 104.79048157 -0.21600342 C105.89263 -0.2252182 106.99477844 -0.23443298 108.13032532 -0.243927 C118.753966 -0.18665893 126.43738924 2.30189874 134.51045227 9.39044189 C141.20666992 16.94514898 144.10680856 23.94475617 143.94795227 34.14044189 C144.7208812 34.13155945 145.49381012 34.122677 146.29016113 34.11352539 C153.62943242 34.03286259 160.96848412 33.97221807 168.30808544 33.93319321 C172.08008154 33.91245455 175.85170669 33.88439392 179.62348938 33.83868408 C183.27399572 33.79472863 186.9241488 33.77120209 190.57489967 33.76093292 C191.95696373 33.75362943 193.33901185 33.73937189 194.72092247 33.71752167 C208.78577754 33.50429177 221.5045714 36.04956798 231.91279602 46.02325439 C242.68362689 57.63662383 243.24738584 70.4536122 243.21537781 85.62451172 C243.21911757 87.30593483 243.22372039 88.98735621 243.22910845 90.66877484 C243.2413135 95.27520489 243.24108093 99.88156217 243.2387197 104.48800468 C243.23831091 109.46156807 243.24935665 114.43510833 243.25883484 119.40866089 C243.27543194 129.14747151 243.2809438 138.88625792 243.28205959 148.62508151 C243.28301065 156.5428562 243.28712379 164.46062291 243.29346085 172.37839508 C243.31106946 194.83708376 243.32030027 217.29575335 243.3187999 239.75444898 C243.31871999 240.96463914 243.31864007 242.1748293 243.31855774 243.42169189 C243.31847598 244.63336317 243.31839422 245.84503445 243.31830998 247.09342304 C243.31749711 266.72940886 243.33663607 286.36531796 243.36483447 306.00128159 C243.3935739 326.17348612 243.40737419 346.34565325 243.40564692 366.51787877 C243.4049834 377.83898614 243.41045901 389.16001308 243.43200302 400.48110199 C243.45022868 410.12004289 243.4545507 419.7588669 243.44098417 429.39781758 C243.43446167 434.31286922 243.43431148 439.22769669 243.45169067 444.1427269 C243.46745798 448.64834799 243.46452053 453.15356783 243.44712241 457.65917936 C243.44406057 459.28295505 243.44765393 460.90676095 243.45884256 462.53050098 C243.54926396 476.59204597 241.63129207 489.27060592 231.94795227 500.14044189 C223.84466433 507.97261611 213.90772693 512.25259 202.62134552 512.27466297 C201.56045511 512.27912082 200.4995647 512.28357866 199.40652609 512.28817159 C198.24710957 512.28798723 197.08769305 512.28780286 195.8931427 512.28761292 C194.03839317 512.29312795 194.03839317 512.29312795 192.14617395 512.29875439 C188.71647685 512.30786527 185.28682754 512.31248742 181.8571229 512.3151437 C178.15685187 512.31905373 174.45659461 512.32863163 170.7563324 512.33735657 C161.82094131 512.35710205 152.88554912 512.36718511 143.95014167 512.37608436 C139.73890595 512.38047071 135.52767149 512.38583665 131.31643677 512.39107323 C117.31123363 512.40808417 103.30603127 512.42257713 89.3008194 512.42982197 C85.66789753 512.43173176 82.03497567 512.43365211 78.40205383 512.43560791 C77.49914449 512.43609165 76.59623514 512.43657539 75.6659649 512.43707379 C61.04774305 512.44536959 46.42960314 512.47069949 31.81141704 512.50318859 C16.79219952 512.53629592 1.77302359 512.55427408 -13.2462306 512.55746621 C-21.67447969 512.55962799 -30.10260931 512.5683278 -38.53082275 512.59392738 C-45.71049238 512.6156847 -52.89001349 512.62366018 -60.06971234 512.6139606 C-63.72910525 512.6094303 -67.38819208 512.6112273 -71.04754257 512.63072205 C-75.02560988 512.65173047 -79.00326071 512.64132204 -82.98136902 512.62818909 C-84.12293976 512.63915833 -85.26451051 512.65012758 -86.4406743 512.66142923 C-99.35017076 512.55902594 -110.50043569 508.96939907 -120.05204773 500.14044189 C-129.54874057 489.33795379 -130.64099104 476.900924 -130.5599823 463.17462158 C-130.5645971 461.46529485 -130.5709539 459.75597209 -130.57889128 458.04665756 C-130.59552815 453.3723865 -130.58736398 448.69844378 -130.5749464 444.02417183 C-130.56587507 438.97432399 -130.57987596 433.92453156 -130.59086609 428.87469482 C-130.60863366 418.9910766 -130.60481916 409.10758002 -130.59321553 399.22395706 C-130.58417456 391.18988295 -130.58296008 383.15584288 -130.58731079 375.12176514 C-130.58792372 373.97743192 -130.58853666 372.83309871 -130.58916816 371.65408874 C-130.59044709 369.32925064 -130.59174394 367.00441256 -130.59305853 364.67957449 C-130.60445917 342.88992509 -130.5913587 321.10034306 -130.56985706 299.31070471 C-130.55198657 280.62240629 -130.55509082 261.93420727 -130.5735321 243.24591064 C-130.59494791 221.53315215 -130.60336058 199.82045267 -130.59108305 178.10768509 C-130.58980888 175.79149629 -130.5885514 173.47530747 -130.58731079 171.15911865 C-130.58669369 170.0195697 -130.58607659 168.88002075 -130.58544078 167.70594001 C-130.58199002 159.68340114 -130.58781034 151.66089976 -130.597229 143.6383667 C-130.60845823 133.85886955 -130.60538944 124.07950079 -130.58410603 114.30001831 C-130.57360813 109.31230098 -130.56945237 104.32479756 -130.58270264 99.33708191 C-130.59465836 94.76748474 -130.58801165 90.19829895 -130.56679243 85.62873888 C-130.56233983 83.97949265 -130.56456233 82.33021136 -130.57429558 80.68098783 C-130.65478974 65.90343935 -127.95708829 55.16636536 -117.32548523 44.39044189 C-106.52551808 34.52745819 -94.21291032 33.83586145 -80.17314148 33.94512939 C-78.75111084 33.94886699 -77.32907761 33.95171043 -75.90704346 33.95370483 C-72.1933206 33.96128258 -68.47975819 33.9808795 -64.76609802 34.00311279 C-60.96495228 34.02369864 -57.16378021 34.03273359 -53.3625946 34.04278564 C-45.9256731 34.06413194 -38.48888303 34.09819559 -31.05204773 34.14044189 C-31.05893616 33.52265869 -31.06582458 32.90487549 -31.07292175 32.26837158 C-31.07827942 31.45787354 -31.08363708 30.64737549 -31.0891571 29.81231689 C-31.09604553 29.00890869 -31.10293396 28.20550049 -31.11003113 27.37774658 C-30.91303013 19.77641128 -26.38930238 13.46216264 -21.34111023 8.12091064 C-15.2003936 2.80803807 -8.06713325 0.02713692 0 0 Z M-12.45829773 24.14044189 C-14.97616628 29.18693911 -14.63295336 34.62537472 -14.55204773 40.14044189 C-14.56751648 41.19489502 -14.58298523 42.24934814 -14.59892273 43.33575439 C-14.56664375 49.77541155 -14.20481014 54.09404706 -10.05204773 59.14044189 C-3.94595902 63.57222169 2.19109314 63.70908632 9.50117493 63.64215088 C10.63387314 63.64755386 11.76657135 63.65295685 12.93359375 63.65852356 C16.66000371 63.67098283 20.38563699 63.65453943 24.11201477 63.63653564 C26.70937643 63.63669067 29.30673832 63.63818032 31.90409851 63.64094543 C37.33940258 63.64232811 42.77442246 63.63022835 48.20967102 63.60699463 C54.48323263 63.58036217 60.75642441 63.57864872 67.03002322 63.59038299 C73.08170538 63.60117945 79.13321887 63.59485844 85.18490219 63.58082771 C87.7533212 63.57631371 90.32175107 63.57597596 92.89017105 63.57989311 C96.47818027 63.58280438 100.06558576 63.56630212 103.65351868 63.54449463 C104.71341507 63.54899628 105.77331146 63.55349792 106.86532593 63.55813599 C113.06875613 63.49551238 117.84416589 63.03780068 122.59248352 58.60528564 C127.20675868 52.57123351 127.18827854 48.95414811 127.26045227 41.51544189 C127.28945618 40.54219971 127.31846008 39.56895752 127.3483429 38.56622314 C127.40383739 32.22277517 126.64242721 27.40612101 122.94795227 22.14044189 C118.85667593 18.24874001 115.72839478 17.02102255 110.15455627 16.99327087 C109.16767822 16.98611557 108.18080017 16.97896027 107.16401672 16.97158813 C105.54161072 16.96755478 105.54161072 16.96755478 103.88642883 16.96343994 C102.74631348 16.95686874 101.60619812 16.95029755 100.43153381 16.94352722 C96.65054766 16.92378234 92.86960124 16.91212915 89.08857727 16.90216064 C87.79822319 16.89808512 86.50786911 16.89400959 85.17841339 16.88981056 C79.05363056 16.87109708 72.92886767 16.8565323 66.80406213 16.84819859 C59.74277741 16.83843113 52.68180657 16.81212276 45.62063241 16.7716977 C39.49799194 16.73785323 33.37548303 16.72604984 27.25275421 16.7219944 C24.65164308 16.71712086 22.05053548 16.70548518 19.44948578 16.68695641 C15.80842054 16.66263054 12.16817532 16.66351858 8.52705383 16.67047119 C6.91679321 16.6512561 6.91679321 16.6512561 5.27400208 16.63165283 C-2.51269307 16.68582203 -7.382665 17.8123803 -12.45829773 24.14044189 Z M-106.71563441 57.5417639 C-113.84803031 66.0738581 -113.76322581 75.28824489 -113.68023682 85.81637573 C-113.68528714 87.50635574 -113.69251972 89.19633039 -113.70173496 90.88629282 C-113.72061473 95.51167952 -113.70844772 100.13653547 -113.69101202 104.76190853 C-113.67761841 109.75718884 -113.69308218 114.75239252 -113.70483398 119.74766541 C-113.72319921 129.52550032 -113.71470602 139.30313521 -113.69674576 149.08096386 C-113.68271356 157.02737257 -113.6788283 164.97372703 -113.68218803 172.92014694 C-113.68266548 174.05160501 -113.68314292 175.18306307 -113.68363483 176.34880774 C-113.68466117 178.64739957 -113.68571653 180.94599138 -113.68680059 183.24458317 C-113.6953652 203.562774 -113.67869953 223.88086831 -113.64897156 244.19903564 C-113.62012714 263.9135951 -113.61305456 283.62801556 -113.62846375 303.34259033 C-113.64522397 324.81506785 -113.64926251 346.28747939 -113.63175339 367.75995862 C-113.62990901 370.04942853 -113.62807428 372.33889845 -113.62624931 374.62836838 C-113.62533722 375.7548139 -113.62442513 376.88125943 -113.6234854 378.04183967 C-113.61787949 385.97961163 -113.62118764 393.91735139 -113.62779427 401.85512161 C-113.63552481 411.52713837 -113.62878459 421.19901829 -113.60361923 430.87100746 C-113.59111869 435.80568568 -113.58498452 440.7401508 -113.59616089 445.67483711 C-113.60619966 450.19251478 -113.59775135 454.70976739 -113.57457971 459.22739331 C-113.5694194 460.86113533 -113.57098411 462.49491541 -113.57997436 464.12864085 C-113.62675506 473.40148043 -113.61426351 480.72746327 -107.37626648 488.12872314 C-106.83614929 488.56571533 -106.2960321 489.00270752 -105.73954773 489.45294189 C-105.20716492 489.90282471 -104.6747821 490.35270752 -104.12626648 490.81622314 C-97.02641049 495.34889957 -91.09210586 495.57328213 -82.81246948 495.53485107 C-80.96423229 495.54398773 -80.96423229 495.54398773 -79.07865697 495.55330896 C-75.67033935 495.56705289 -72.26250479 495.56739783 -68.85419595 495.56193399 C-65.1737647 495.55925946 -61.49339465 495.57380357 -57.81298828 495.58602905 C-50.60690775 495.60706785 -43.40090771 495.61162478 -36.1948001 495.60984117 C-30.33596553 495.60853269 -24.47715604 495.61234208 -18.61832619 495.61976624 C-16.92961051 495.62186547 -15.24089484 495.62396307 -13.55217916 495.62605906 C-12.71160855 495.62710258 -11.87103795 495.62814611 -11.0049955 495.62922126 C4.8873341 495.64811759 20.77961752 495.64707538 36.6719537 495.64025193 C51.20157703 495.63467769 65.73102397 495.65549788 80.26060609 495.6886124 C95.18835499 495.72236964 110.11601944 495.73751515 125.04380721 495.73289537 C133.4210833 495.73065264 141.7981964 495.73586505 150.17543983 495.76078796 C157.30797647 495.78182747 164.44026074 495.785367 171.57280783 495.76648837 C175.20961789 495.75734645 178.84595776 495.75613924 182.48273087 495.77684402 C186.43118726 495.79907398 190.37894498 495.78229751 194.3274231 495.76190186 C195.46858623 495.7744197 196.60974936 495.78693755 197.7854932 495.79983473 C205.92702626 495.70980528 212.69018098 493.98101468 218.86154395 488.41435385 C226.93690332 480.00778078 226.37812048 469.81867682 226.3289032 458.90156555 C226.33236186 457.23465288 226.33712783 455.5677425 226.34308493 453.90083688 C226.35559603 449.32998891 226.34942401 444.7593291 226.34012628 440.1884805 C226.33333655 435.25519297 226.34381668 430.32193772 226.35206604 425.38865662 C226.36540665 415.72790198 226.36252407 406.06721726 226.35382812 396.40645988 C226.34705289 388.55441404 226.34613416 380.70238781 226.34939957 372.85033989 C226.34985927 371.73277637 226.35031896 370.61521286 226.35079259 369.46378378 C226.35175177 367.19345963 226.35272441 364.92313548 226.35371037 362.65281134 C226.36226533 341.36303077 226.35242866 320.07328895 226.33630927 298.78351473 C226.32290784 280.51811232 226.32523255 262.2527671 226.33906555 243.98736572 C226.35512265 222.77529742 226.36143941 201.56326309 226.35222876 180.35118955 C226.35127312 178.08891293 226.35033001 175.8266363 226.34939957 173.56435966 C226.34870533 171.89474831 226.34870533 171.89474831 226.34799706 170.19140743 C226.34540743 162.34981104 226.34977764 154.5082362 226.35683823 146.66664314 C226.36525493 137.10881899 226.36296953 127.55106875 226.34699599 117.99325306 C226.33911534 113.11722453 226.33601821 108.2413192 226.34594345 103.3652916 C226.35489513 98.89998316 226.34994962 94.43491191 226.33401079 89.96962493 C226.33066499 88.35598885 226.33235256 86.74233266 226.33963816 85.12870956 C226.37868216 75.76119554 226.37934843 67.46502214 221.13545227 59.32794189 C214.65874298 52.8512326 208.34450778 51.05526058 199.46186829 50.91339111 C196.87461423 50.91370611 194.28888515 50.92448824 191.70185852 50.94512939 C190.32180996 50.94886495 188.94175872 50.95170936 187.56170654 50.95370483 C183.94988025 50.96129865 180.33821778 50.98090995 176.72645569 51.00311279 C173.03273229 51.02366343 169.33898213 51.03272616 165.6452179 51.04278564 C158.41272177 51.06416041 151.18036008 51.0982442 143.94795227 51.14044189 C143.68965637 51.95593506 143.43136047 52.77142822 143.16523743 53.6116333 C142.81767395 54.68590576 142.47011047 55.76017822 142.11201477 56.86700439 C141.60082092 58.46149414 141.60082092 58.46149414 141.07929993 60.0881958 C137.91916972 68.6138643 132.09039705 73.38606941 123.94795227 77.14044189 C117.66228593 79.4131234 111.7700681 79.43644989 105.12861633 79.43096924 C103.95532776 79.43768646 102.78203918 79.44440369 101.57319641 79.45132446 C97.70328 79.47028628 93.83353722 79.47422789 89.96357727 79.47637939 C88.6243609 79.47922859 87.28514523 79.48242091 85.94593048 79.48595047 C78.93063649 79.50442688 71.91541823 79.5126243 64.90010071 79.51104736 C58.3863519 79.50984738 51.87293519 79.53092737 45.35927033 79.56253469 C39.74624919 79.58878979 34.13333588 79.59941078 28.5202539 79.59813654 C25.17696233 79.5976295 21.83419998 79.60504117 18.49092865 79.62449265 C14.7552981 79.64419078 11.02051185 79.63829828 7.28486633 79.62628174 C6.19462158 79.63752075 5.10437683 79.64875977 3.98109436 79.66033936 C-6.01145383 79.57907454 -14.9621436 77.23397739 -22.33329773 70.19512939 C-27.04238133 64.565634 -29.09608458 58.10403764 -31.05204773 51.14044189 C-38.98037345 51.0706476 -46.90856883 51.01748241 -54.83712673 50.98500538 C-58.51947389 50.96941076 -62.20160943 50.94828756 -65.88383484 50.91412354 C-69.44353348 50.88130648 -73.00302976 50.86354234 -76.56286812 50.85581017 C-78.56847947 50.8476448 -80.57401046 50.82426173 -82.57949829 50.80055237 C-91.30395441 50.79895887 -100.02421143 51.20425062 -106.71563441 57.5417639 Z " fill="#ffffff" transform="translate(140.0520477294922,-0.14044189453125)"/>
<path d="M0 0 C6.26632073 6.73595932 8.32458772 13.04220646 8.1953125 22.2421875 C8.1924826 23.01055939 8.18965271 23.77893127 8.18673706 24.57058716 C8.17561311 27.00555521 8.1505236 29.44014462 8.125 31.875 C8.11496011 33.53384882 8.10583603 35.19270346 8.09765625 36.8515625 C8.07569937 40.90118579 8.04122406 44.95052887 8 49 C8.88260498 48.97905273 9.76520996 48.95810547 10.67456055 48.93652344 C13.96405569 48.86815905 17.25279094 48.81811051 20.54272461 48.78027344 C21.96374457 48.76021579 23.38468259 48.73296222 24.80541992 48.69824219 C26.85355895 48.64945989 28.90060275 48.62697461 30.94921875 48.609375 C32.79519653 48.5779541 32.79519653 48.5779541 34.6784668 48.54589844 C38.75578336 49.1033265 40.16280321 50.04212237 43 53 C43.50682489 55.66564799 43.68605129 57.70307477 43.64697266 60.3671875 C43.65573425 61.1026178 43.66449585 61.8380481 43.67352295 62.59576416 C43.69550048 65.02277921 43.68097205 67.44796698 43.6640625 69.875 C43.66743116 71.56364288 43.67228419 73.25228339 43.67855835 74.94091797 C43.68592738 78.47842514 43.6752238 82.01530068 43.65185547 85.55273438 C43.62336694 90.08607253 43.63977086 94.61793075 43.66971779 99.1512146 C43.68779038 102.63772726 43.68203308 106.12388934 43.66907883 109.6104126 C43.66574467 111.28176041 43.66983229 112.95314011 43.68147659 114.62445068 C43.69418567 116.96142806 43.67481227 119.29601326 43.64697266 121.6328125 C43.66215439 122.66779877 43.66215439 122.66779877 43.67764282 123.72369385 C43.59765558 127.34997258 43.22150198 128.76785003 40.68222046 131.42919922 C37.16153405 133.49103457 35.01671422 133.58424934 31 133 C28.09282927 130.78136971 27.16018357 129.48055071 26 126 C25.91122825 124.05219171 25.88238692 122.10143718 25.88647461 120.15161133 C25.88658791 118.35008354 25.88658791 118.35008354 25.88670349 116.51216125 C25.89186478 115.21521835 25.89702606 113.91827545 25.90234375 112.58203125 C25.90420923 111.24110466 25.90563252 109.90017739 25.90663147 108.55924988 C25.91044644 105.03290927 25.92026801 101.50660996 25.93133545 97.98028564 C25.9415715 94.38074299 25.94613379 90.78119365 25.95117188 87.18164062 C25.9618912 80.12107526 25.97947975 73.06054467 26 66 C20.06 66 14.12 66 8 66 C8.01797496 68.0303197 8.01797496 68.0303197 8.03631306 70.10165596 C8.31898582 102.36518239 8.53278158 134.62840115 8.66384928 166.89288855 C8.68010491 170.87992916 8.69693144 174.86696718 8.71411133 178.85400391 C8.71922638 180.04442708 8.71922638 180.04442708 8.72444477 181.2588992 C8.78073062 194.04276488 8.88306954 206.8258563 9.00298635 219.60926546 C9.1253493 232.76496627 9.19692921 245.92026682 9.22315043 259.07651317 C9.23925651 266.45027134 9.27773508 273.82241255 9.37449074 281.19559097 C10.10918059 338.87448883 10.10918059 338.87448883 -3.31157875 361.04751205 C-6.40871433 366.46337345 -8.67045434 372.24542686 -11.0625 378 C-16.41049195 390.43630396 -16.41049195 390.43630396 -20 395 C-23.53601488 396.30678811 -25.3364839 396.2128899 -28.91430664 395.06494141 C-33.29336549 392.13448174 -34.51241919 388.66658247 -36.49609375 383.8984375 C-36.8927272 382.98857086 -37.28936066 382.07870422 -37.69801331 381.14126587 C-38.96308948 378.22679682 -40.20037934 375.3014286 -41.4375 372.375 C-42.26450498 370.46017162 -43.09326502 368.54610022 -43.92382812 366.6328125 C-48.0389148 357.11350644 -48.0389148 357.11350644 -49.62153149 353.18689823 C-50.96452614 349.95130736 -50.96452614 349.95130736 -52.73971367 346.80048466 C-59.7290723 333.31515479 -58.98600583 319.10036928 -58.87109554 304.28880417 C-58.84885223 300.41902698 -58.86749922 296.54940009 -58.88072205 292.67961121 C-58.90017685 285.12312877 -58.8825417 277.56718022 -58.8517585 270.01075316 C-58.8171833 261.19897295 -58.81915794 252.38730978 -58.82223699 243.57547604 C-58.82641703 227.85106924 -58.79655299 212.12691162 -58.74780273 196.40258789 C-58.7005762 181.16327142 -58.67938225 165.92420367 -58.6862793 150.68481445 C-58.69494965 131.40200313 -58.680721 112.11934327 -58.64752692 92.8365589 C-58.63763482 86.70103025 -58.63588088 80.56553001 -58.63687706 74.42999458 C-58.63763574 66.95367341 -58.62341614 59.47754756 -58.59059789 52.00129581 C-58.57416584 48.19033549 -58.56392284 44.37964095 -58.57102966 40.56864548 C-58.57848914 36.43237289 -58.55481042 32.29685299 -58.52812195 28.16065979 C-58.53499848 26.96406268 -58.541875 25.76746557 -58.54895991 24.53460795 C-58.44482209 15.061733 -56.45542242 6.62805363 -49.83203125 -0.46484375 C-36.45731825 -11.67222586 -13.09887895 -11.37072857 0 0 Z M-40 15 C-41.17942085 18.53826255 -41.11289189 21.34148726 -41.09765625 25.07421875 C-41.09515869 26.32549561 -41.09266113 27.57677246 -41.09008789 28.8659668 C-41.08098389 30.45707275 -41.07187988 32.04817871 -41.0625 33.6875 C-41.041875 38.740625 -41.02125 43.79375 -41 49 C-30.44 49 -19.88 49 -9 49 C-8.938125 43.823125 -8.87625 38.64625 -8.8125 33.3125 C-8.78518799 31.68739502 -8.75787598 30.06229004 -8.72973633 28.38793945 C-8.72224365 27.10105225 -8.71475098 25.81416504 -8.70703125 24.48828125 C-8.68346558 22.51661987 -8.68346558 22.51661987 -8.65942383 20.50512695 C-9.02234417 16.77003922 -9.71730021 14.94063672 -12 12 C-20.6981862 6.63303404 -33.16349691 6.94269279 -40 15 Z M-41 66 C-41 150.15 -41 234.3 -41 321 C-30.44 321 -19.88 321 -9 321 C-9 236.85 -9 152.7 -9 66 C-19.56 66 -30.12 66 -41 66 Z M-36 339 C-34.0011013 344.9966961 -31.96480867 350.73882324 -29.4375 356.5 C-29.13392578 357.21414063 -28.83035156 357.92828125 -28.51757812 358.6640625 C-27.06016653 362.51902111 -27.06016653 362.51902111 -24 365 C-22.32442019 361.23306487 -20.66108133 357.46084826 -19 353.6875 C-18.52304687 352.61564453 -18.04609375 351.54378906 -17.5546875 350.43945312 C-17.10351562 349.41142578 -16.65234375 348.38339844 -16.1875 347.32421875 C-15.76855469 346.37635498 -15.34960938 345.42849121 -14.91796875 344.4519043 C-13.82468868 341.9680933 -13.82468868 341.9680933 -14 339 C-21.26 339 -28.52 339 -36 339 Z " fill="#ffffff" transform="translate(459,78)"/>
<path d="M0 0 C1.07672974 -0.00983414 2.15345947 -0.01966827 3.26281738 -0.02980042 C4.43904663 -0.02013245 5.61527588 -0.01046448 6.82714844 -0.00050354 C8.0697644 -0.00590652 9.31238037 -0.01130951 10.59265137 -0.01687622 C13.99788535 -0.02724171 17.40214798 -0.01966007 20.80729675 -0.00316501 C24.37153516 0.01068985 27.93574438 0.00422492 31.5 0.0007019 C37.48543433 -0.00199989 43.47066809 0.01147254 49.45605469 0.03465271 C56.37485261 0.06126241 63.2933152 0.06300952 70.21214676 0.05126435 C76.86929869 0.04048301 83.52632937 0.04667638 90.18347168 0.06081963 C93.015939 0.06657639 95.84831751 0.06649922 98.68078613 0.06175423 C102.63595253 0.05609345 106.59078372 0.07530771 110.54589844 0.09715271 C112.31024231 0.09040024 112.31024231 0.09040024 114.11022949 0.08351135 C115.18695923 0.09341599 116.26368896 0.10332062 117.37304688 0.11352539 C118.77559723 0.11717023 118.77559723 0.11717023 120.20648193 0.12088871 C123.1494964 0.57220279 124.52211728 1.49118391 126.68652344 3.50120544 C127.75031246 6.14959688 127.93530379 8.66510944 127.68652344 11.50120544 C125.92188283 14.36114022 124.69086647 15.99903393 121.68652344 17.50120544 C120.03805882 17.60039236 118.3856138 17.63626944 116.73417664 17.64164734 C115.68688385 17.64735748 114.63959106 17.65306763 113.56056213 17.65895081 C112.40676559 17.66006866 111.25296906 17.66118652 110.06420898 17.66233826 C108.85275208 17.66730316 107.64129517 17.67226807 106.39312744 17.67738342 C103.0644878 17.6895054 99.73591109 17.69695383 96.40725684 17.70139408 C94.3277387 17.70432411 92.24822608 17.70842881 90.16871071 17.71289825 C83.66269763 17.72657582 77.15669717 17.73624084 70.65067071 17.74010015 C63.14002421 17.74457977 55.6295598 17.76212198 48.11896867 17.79110074 C42.31422353 17.81272018 36.50952961 17.82280458 30.70474464 17.82414126 C27.23760311 17.82518924 23.7706327 17.83109507 20.30353355 17.84896088 C16.43463651 17.86850873 12.56596676 17.86415152 8.69702148 17.85765076 C7.54929764 17.86686554 6.40157379 17.87608032 5.21907043 17.88557434 C3.63544205 17.87722061 3.63544205 17.87722061 2.01982117 17.86869812 C1.10523479 17.87016468 0.1906484 17.87163124 -0.75165272 17.87314224 C-4.56083971 17.3201078 -7.35680238 15.76227596 -9.68847656 12.68870544 C-10.57437372 9.58806541 -10.21292835 7.58504015 -9.31347656 4.50120544 C-6.41067269 0.86776209 -4.61533788 0.00103303 0 0 Z " fill="#ffffff" transform="translate(190.3134765625,251.49879455566406)"/>
<path d="M0 0 C1.06556625 -0.0071553 2.13113251 -0.01431061 3.22898865 -0.02168274 C4.99009224 -0.02571609 4.99009224 -0.02571609 6.78677368 -0.02983093 C8.6356292 -0.03968773 8.6356292 -0.03968773 10.52183533 -0.04974365 C13.90825371 -0.06609878 17.29460957 -0.07770542 20.68105268 -0.08594918 C22.79607482 -0.0910984 24.91109257 -0.09717412 27.0261116 -0.10346031 C33.64157608 -0.12251159 40.25702939 -0.13674362 46.87251604 -0.14507228 C54.51283501 -0.15484968 62.15286465 -0.18118221 69.79308164 -0.22157317 C75.69632287 -0.25171228 81.59948104 -0.26653898 87.50279772 -0.26985329 C91.02977047 -0.27220606 94.5564341 -0.28119537 98.08332443 -0.30631447 C102.01712103 -0.33387921 105.95053535 -0.32977078 109.88442993 -0.32279968 C111.05445053 -0.33560974 112.22447113 -0.3484198 113.4299469 -0.36161804 C114.5011528 -0.35467422 115.5723587 -0.34773041 116.67602539 -0.34057617 C117.60628225 -0.34296453 118.53653912 -0.34535288 119.49498558 -0.34781361 C122.75522488 0.30553105 123.9303285 1.56476583 125.96499634 4.14717102 C126.82545615 7.58901028 127.29595898 10.03393303 126.27749634 13.45967102 C124.65948665 15.53996919 123.40494876 16.15674817 120.96499634 17.14717102 C118.51898289 17.40443993 118.51898289 17.40443993 115.73417664 17.41459656 C114.67572037 17.42312653 113.6172641 17.43165649 112.5267334 17.44044495 C111.37077667 17.43953857 110.21481995 17.4386322 109.02383423 17.43769836 C107.19158043 17.4477742 107.19158043 17.4477742 105.3223114 17.45805359 C101.9751358 17.4737971 98.62820831 17.48040859 95.28101277 17.48168516 C93.18908009 17.48310755 91.09717335 17.48737876 89.00524712 17.4926796 C81.70511094 17.51117625 74.40504775 17.51935052 67.10488892 17.51777649 C60.30309468 17.51657463 53.50161753 17.53768622 46.69990355 17.56926382 C40.85689047 17.59542266 35.013981 17.60614398 29.17090982 17.60486567 C25.68251705 17.60435599 22.19440623 17.61004245 18.70607185 17.63122177 C14.81577298 17.65419755 10.92590867 17.6450856 7.03555298 17.63301086 C5.30465424 17.64986938 5.30465424 17.64986938 3.53878784 17.66706848 C-4.22991021 17.60565993 -4.22991021 17.60565993 -8.2230072 15.33164978 C-10.78310769 12.2452833 -11.10486394 10.12920659 -11.03500366 6.14717102 C-7.86623815 1.12085331 -5.75151607 0.02644317 0 0 Z " fill="#ffffff" transform="translate(191.03500366210938,350.8528289794922)"/>
<path d="M0 0 C1.08239456 -0.00860046 2.16478912 -0.01720093 3.27998352 -0.02606201 C4.47275406 -0.03032196 5.6655246 -0.03458191 6.8944397 -0.03897095 C8.14651718 -0.04714844 9.39859467 -0.05532593 10.68861389 -0.06375122 C14.84657468 -0.08863653 19.00449909 -0.10527704 23.1625061 -0.11953735 C24.59318676 -0.12489674 26.02386736 -0.13027425 27.45454788 -0.13566971 C33.40456202 -0.15729682 39.35457343 -0.17603464 45.30461693 -0.1872921 C53.83623191 -0.20353949 62.36739205 -0.23673758 70.89883554 -0.29369295 C76.89549184 -0.33236401 82.89202634 -0.35192128 88.88880408 -0.35721266 C92.4717443 -0.36086963 96.05419942 -0.37292631 99.63700485 -0.4053154 C103.63324903 -0.44092471 107.62851262 -0.43703256 111.62490845 -0.42959595 C112.81363052 -0.44600128 114.0023526 -0.46240662 115.22709656 -0.47930908 C123.22291168 -0.4181777 123.22291168 -0.4181777 126.62432861 2.50286865 C128.17852428 5.76063047 128.48375932 7.58575587 127.8890686 11.15390015 C126.62234497 13.802948 126.62234497 13.802948 123.8890686 16.15390015 C119.82318345 16.92460242 115.78362944 16.81530364 111.65664673 16.76913452 C110.40427719 16.77468353 109.15190765 16.78023254 107.86158752 16.78594971 C104.42929205 16.79573876 100.9985017 16.78314095 97.5663662 16.75966454 C93.97410764 16.73955371 90.3818823 16.7454352 86.7895813 16.74777222 C80.75701687 16.74771865 74.72476567 16.72796336 68.69229126 16.69589233 C61.71895384 16.6589994 54.74602674 16.65021674 47.77260447 16.65718985 C41.06311409 16.66349623 34.35376436 16.65273811 27.64430237 16.63322449 C24.78951513 16.62505204 21.93479979 16.62234065 19.08000183 16.62391663 C15.09367871 16.62495917 11.10772725 16.6007802 7.12149048 16.57382202 C5.3431205 16.57821793 5.3431205 16.57821793 3.52882385 16.58270264 C1.90110802 16.56567795 1.90110802 16.56567795 0.24050903 16.54830933 C-0.70189888 16.54458061 -1.64430679 16.5408519 -2.61527252 16.53701019 C-5.60204006 16.07850977 -6.96097861 15.256665 -9.1109314 13.15390015 C-10.21466518 9.18045853 -10.52636722 7.06390243 -8.7984314 3.27890015 C-6.0968815 -0.12305158 -4.16912261 0.02460319 0 0 Z " fill="#ffffff" transform="translate(190.11093139648438,151.84609985351563)"/>
<path d="M0 0 C2.08816747 3.13225121 2.60797154 5.09842437 2.5007782 8.84446716 C1.88354846 11.50125008 0.89202014 12.67543891 -0.94995117 14.67602539 C-1.58758392 15.37116241 -2.22521667 16.06629944 -2.88217163 16.78250122 C-6.65972431 20.73783517 -10.49113211 24.63335923 -14.36328125 28.49609375 C-15.23647507 29.37024429 -16.10966888 30.24439484 -17.00932312 31.14503479 C-18.84100616 32.97739427 -20.67393635 34.80850784 -22.50805664 36.63842773 C-24.3884643 38.51523402 -26.26746483 40.39330548 -28.14379883 42.27416992 C-30.86013205 44.99665351 -33.57987311 47.71568323 -36.30078125 50.43359375 C-37.14345047 51.2782872 -37.98611969 52.12298065 -38.85432434 52.99327087 C-40.0214521 54.15567039 -40.0214521 54.15567039 -41.2121582 55.34155273 C-41.89719925 56.02579819 -42.5822403 56.71004364 -43.28804016 57.4150238 C-46.12792288 60.04425985 -48.77542415 60.64994866 -52.66015625 60.59375 C-57.87287381 59.27099029 -61.38189218 54.75149428 -65 51 C-65.87011719 50.16082031 -66.74023438 49.32164062 -67.63671875 48.45703125 C-74.55320735 41.45367937 -74.55320735 41.45367937 -74.6640625 36.52734375 C-74 33 -74 33 -72.375 30.5625 C-69.4340868 28.62768868 -67.52349544 28.07190807 -64 28 C-59.07935853 30.01872471 -55.60783398 34.20501613 -52 38 C-48.83422712 36.6027054 -46.73469788 34.96704543 -44.32055664 32.5 C-43.61625015 31.78585937 -42.91194366 31.07171875 -42.18629456 30.3359375 C-41.43516891 29.56507813 -40.68404327 28.79421875 -39.91015625 28 C-38.30545786 26.37488218 -36.70063636 24.7498859 -35.09570312 23.125 C-32.57401502 20.55978788 -30.05483552 17.99217168 -27.53833008 15.421875 C-25.10620708 12.94148522 -22.66496123 10.47035867 -20.22265625 8 C-19.47355484 7.22914063 -18.72445343 6.45828125 -17.95265198 5.6640625 C-17.24519333 4.94992187 -16.53773468 4.23578125 -15.80883789 3.5 C-14.88428551 2.55640625 -14.88428551 2.55640625 -13.9410553 1.59375 C-9.10326846 -2.37843089 -5.73834466 -2.27368373 0 0 Z " fill="#ffffff" transform="translate(149,344)"/>
<path d="M0 0 C2.875 1.4375 2.875 1.4375 5 4 C5.99558744 7.190373 5.86552339 9.78250679 5 13 C2.06923618 17.26050355 -1.56111267 20.75651045 -5.25390625 24.34375 C-6.31484292 25.40312885 -7.37422241 26.46406924 -8.43211365 27.52648926 C-10.64866641 29.74277362 -12.87982428 31.94280726 -15.12329102 34.13183594 C-17.99162718 36.93206502 -20.82549746 39.7643619 -23.64981174 42.60890961 C-25.83210208 44.80124595 -28.02912678 46.97830568 -30.23112297 49.15083313 C-31.28160947 50.1898118 -32.32812871 51.23281821 -33.37048531 52.279953 C-34.83245265 53.74303899 -36.31248375 55.18503864 -37.79907227 56.62304688 C-39.05482811 57.85806946 -39.05482811 57.85806946 -40.33595276 59.11804199 C-43.61155413 61.43201906 -46.02722299 61.80168991 -50 62 C-55.15553662 59.97226506 -58.92729747 55.33017493 -62.75 51.4375 C-63.77673828 50.40979492 -63.77673828 50.40979492 -64.82421875 49.36132812 C-70.87875762 43.25283792 -70.87875762 43.25283792 -71.375 38.125 C-71.32070848 34.80718477 -71.15676121 34.19001359 -68.9375 31.5 C-64.98876925 29.48362685 -63.39928696 29.06244704 -59 30 C-56.21887026 32.18849935 -53.72860109 34.52153182 -51.234375 37.03125 C-49.1211827 39.33055044 -49.1211827 39.33055044 -46 39 C-44.10679681 37.53828023 -44.10679681 37.53828023 -42.20288086 35.52758789 C-41.44877426 34.77002701 -40.69466766 34.01246613 -39.91770935 33.23194885 C-39.1082637 32.40388229 -38.29881805 31.57581573 -37.46484375 30.72265625 C-36.63038223 29.88157822 -35.79592072 29.04050018 -34.93617249 28.17393494 C-32.26280031 25.47708759 -29.599758 22.77031587 -26.9375 20.0625 C-24.26999092 17.35998361 -21.60038646 14.65958492 -18.92811584 11.96177673 C-17.26335684 10.27998082 -15.60168667 8.5951209 -13.94334412 6.90699768 C-13.19238968 6.14628464 -12.44143524 5.38557159 -11.66772461 4.60180664 C-11.00614853 3.92896133 -10.34457245 3.25611603 -9.66294861 2.56288147 C-6.56938339 -0.34452994 -4.16270917 -0.40810874 0 0 Z " fill="#ffffff" transform="translate(146,143)"/>
<path d="M0 0 C2.84998162 2.29837227 2.99187025 3.95085901 3.59130859 7.57421875 C3.49764431 12.74051262 0.65633341 15.27470425 -2.84213257 18.79980469 C-3.6857132 19.60836914 -4.52929382 20.41693359 -5.3984375 21.25 C-6.26256256 22.10754883 -7.12668762 22.96509766 -8.01699829 23.84863281 C-10.78480639 26.5849698 -13.57966353 29.29182217 -16.375 32 C-18.21916795 33.82117656 -20.06163567 35.64407653 -21.90234375 37.46875 C-23.69118627 39.23071328 -25.48150587 40.99117846 -27.2734375 42.75 C-28.09677582 43.55856445 -28.92011414 44.36712891 -29.7684021 45.20019531 C-33.81521175 49.11716271 -37.94345211 52.92757355 -42.23291016 56.578125 C-43.38903305 57.5666748 -43.38903305 57.5666748 -44.56851196 58.57519531 C-47.59696216 60.34980821 -49.54342703 60.34934424 -53 60 C-54.94921875 58.85546875 -54.94921875 58.85546875 -56.6875 57.1875 C-57.35265625 56.5584375 -58.0178125 55.929375 -58.703125 55.28125 C-59.46109375 54.5284375 -60.2190625 53.775625 -61 53 C-61.97369984 52.05181781 -62.94767354 51.10391679 -63.921875 50.15625 C-72.84142014 41.4007888 -72.84142014 41.4007888 -73.375 36.6875 C-73 33 -73 33 -70.875 30.0625 C-68 28 -68 28 -65.1875 27.25 C-60.32483951 28.39415541 -57.47348434 31.54132796 -54 35 C-53.42636719 35.57105469 -52.85273437 36.14210938 -52.26171875 36.73046875 C-51.84535156 37.14941406 -51.42898437 37.56835938 -51 38 C-47.754387 36.57925676 -45.6373841 34.86237319 -43.171875 32.33203125 C-42.45386719 31.60306641 -41.73585938 30.87410156 -40.99609375 30.12304688 C-40.25488281 29.36056641 -39.51367188 28.59808594 -38.75 27.8125 C-33.94030347 22.88747326 -29.094448 18.13537458 -23.87060547 13.65014648 C-20.44073574 10.62450181 -17.30428259 7.30906358 -14.13867188 4.01171875 C-9.39368973 -0.83815897 -6.65078364 -1.54393192 0 0 Z " fill="#ffffff" transform="translate(148,244)"/>
<path d="M0 0 C0.64574982 -0.00817749 1.29149963 -0.01635498 1.95681763 -0.02478027 C4.09709751 -0.04962316 6.23731109 -0.06614771 8.37768555 -0.08056641 C9.10879232 -0.08589008 9.8398991 -0.09121376 10.59316063 -0.09669876 C14.46330085 -0.12342621 18.33340886 -0.14280189 22.20361328 -0.15722656 C26.19869682 -0.17386936 30.19295457 -0.21864371 34.18772602 -0.26959801 C37.2615604 -0.30327505 40.33519891 -0.31480437 43.40920067 -0.32045364 C44.88161718 -0.32716552 46.35402083 -0.34238629 47.82625771 -0.36634445 C49.89006183 -0.3980117 51.95164114 -0.39803252 54.015625 -0.390625 C55.7752935 -0.40275528 55.7752935 -0.40275528 57.57051086 -0.41513062 C61.66399696 0.37967419 63.14740018 1.962626 65.7019043 5.19287109 C66.3269043 8.69287109 66.3269043 8.69287109 65.7019043 12.19287109 C63.15539319 15.40493098 61.65796476 16.99983124 57.59069824 17.82106018 C55.84460266 17.82250282 55.84460266 17.82250282 54.06323242 17.82397461 C53.41704453 17.83112991 52.77085663 17.83828522 52.10508728 17.84565735 C49.98037863 17.86249322 47.85779567 17.84317652 45.7331543 17.82177734 C44.2501203 17.82260654 42.7670864 17.82506783 41.28405762 17.8290863 C38.18038166 17.83194075 35.07742877 17.81727918 31.97387695 17.78979492 C28.0023898 17.75571145 24.03219509 17.76173297 20.06064606 17.7804575 C16.99958591 17.79104358 13.93882473 17.78207534 10.87779236 17.76707268 C9.41382231 17.76190212 7.9498209 17.762359 6.4858551 17.76861763 C4.4367498 17.77408986 2.38947287 17.75363613 0.34057617 17.72631836 C-0.82348755 17.72011978 -1.98755127 17.7139212 -3.18688965 17.70753479 C-6.96685641 17.08224298 -8.62698562 15.90124411 -11.2980957 13.19287109 C-12.3605957 9.75537109 -12.3605957 9.75537109 -12.2980957 6.19287109 C-8.76971127 0.59612337 -6.36606844 0.06993122 0 0 Z " fill="#ffffff" transform="translate(192.298095703125,383.80712890625)"/>
<path d="M0 0 C0.65564941 -0.00832352 1.31129883 -0.01664703 1.98681641 -0.02522278 C4.15419454 -0.04931707 6.32127168 -0.05809406 8.48876953 -0.06469727 C9.9970814 -0.07366426 11.50539236 -0.08278612 13.01370239 -0.09205627 C16.1761491 -0.10854739 19.33848993 -0.11624655 22.50097656 -0.11914062 C26.54876591 -0.12452386 30.595557 -0.16219926 34.6430645 -0.20788479 C37.75895805 -0.23766279 40.87461145 -0.24486433 43.99063492 -0.24586678 C45.48257137 -0.2500679 46.97450861 -0.26249813 48.46630478 -0.28338432 C50.55640277 -0.31031696 52.6441907 -0.30547115 54.734375 -0.29296875 C55.92223602 -0.2980394 57.11009705 -0.30311005 58.33395386 -0.30833435 C62.44842369 0.4914092 63.93605076 2.05173682 66.49658203 5.30639648 C67.05908203 8.86889648 67.05908203 8.86889648 66.49658203 12.30639648 C64.62949698 14.67137088 63.17596772 15.96670364 60.49658203 17.30639648 C58.43001416 17.41852231 56.35981522 17.46572836 54.2902832 17.48339844 C52.98520309 17.49623367 51.68012299 17.50906891 50.335495 17.52229309 C48.90351744 17.53046061 47.47153561 17.53790432 46.03955078 17.54467773 C44.95943946 17.55079103 44.95943946 17.55079103 43.85750771 17.55702782 C40.04571443 17.57788957 36.23395716 17.59219039 32.42211914 17.6015625 C28.48769364 17.61262309 24.55383433 17.64701781 20.61960888 17.6867342 C17.59209655 17.71289919 14.5647191 17.72125421 11.53710365 17.72484398 C10.08704113 17.72971087 8.63698468 17.74132794 7.1870327 17.75988197 C5.15518215 17.78426445 3.12305627 17.78088949 1.09106445 17.77636719 C-0.06428299 17.78223343 -1.21963043 17.78809967 -2.4099884 17.79414368 C-6.194008 17.19750978 -7.84093055 16.02214538 -10.50341797 13.30639648 C-11.4394701 9.81180186 -11.87767187 7.460346 -10.75341797 3.99389648 C-7.7363494 -0.07914608 -4.71448124 0.04228477 0 0 Z " fill="#ffffff" transform="translate(191.50341796875,284.693603515625)"/>
<path d="M0 0 C0.6671553 -0.00861557 1.33431061 -0.01723114 2.02168274 -0.02610779 C4.22123294 -0.04876255 6.41950863 -0.04203142 8.61914062 -0.03295898 C10.15084207 -0.03819459 11.68254027 -0.04447084 13.2142334 -0.05174255 C16.42211088 -0.06214554 19.62954473 -0.05758679 22.83740234 -0.04296875 C26.94700767 -0.02577375 31.0552158 -0.04928351 35.16466522 -0.08445835 C38.32689669 -0.10642471 41.48879335 -0.10499303 44.65107727 -0.09669304 C46.16613804 -0.09587321 47.6812233 -0.10274276 49.19621277 -0.11746407 C51.31527477 -0.13489988 53.43182026 -0.12038231 55.55078125 -0.09765625 C56.75561157 -0.09669449 57.96044189 -0.09573273 59.20178223 -0.09474182 C62.27539062 0.53344727 62.27539062 0.53344727 64.66442871 2.85023499 C66.77750998 6.36977544 66.86295133 8.49396744 66.27539062 12.53344727 C64.05676033 15.440618 62.75594134 16.37326369 59.27539062 17.53344727 C57.23192533 17.63754897 55.18523705 17.68205274 53.13916016 17.69458008 C51.87419708 17.70418762 50.60923401 17.71379517 49.30593872 17.72369385 C47.92336202 17.72854177 46.54078323 17.73282061 45.15820312 17.73657227 C43.73957315 17.74232617 42.32094318 17.74808388 40.90231323 17.75384521 C37.92819863 17.76434616 34.95411099 17.77019479 31.97998047 17.77368164 C28.17459773 17.77916549 24.36957296 17.80319459 20.56430244 17.83165359 C17.6337277 17.85030441 14.70323879 17.85548686 11.77260971 17.85701752 C10.37001462 17.86003892 8.96742086 17.86805019 7.56488419 17.8812027 C5.60013187 17.89831281 3.63523149 17.89453096 1.67041016 17.88989258 C-0.00479202 17.89536102 -0.00479202 17.89536102 -1.71383667 17.90093994 C-5.1103082 17.48636915 -6.97629254 16.53348565 -9.72460938 14.53344727 C-11.65324777 11.99115121 -11.73363228 10.74999709 -11.59960938 7.53344727 C-9.73708522 1.14765015 -6.3121858 0.03247476 0 0 Z " fill="#ffffff" transform="translate(191.724609375,185.466552734375)"/>
</svg>
