<svg xmlns="http://www.w3.org/2000/svg" version="1.1" xmlns:xlink="http://www.w3.org/1999/xlink" xmlns:svgjs="http://svgjs.dev/svgjs" width="2000" height="1500" viewBox="0 0 2000 1500"><rect width="2000" height="1500" fill="#ffffff"></rect><g transform="matrix(0.75,0,0,0.75,249.2500000000001,-0.7490752171050303)"><svg viewBox="0 0 280 280" data-background-color="#ffffff" preserveAspectRatio="xMidYMid meet" height="2000" width="2000" xmlns="http://www.w3.org/2000/svg" xmlns:xlink="http://www.w3.org/1999/xlink"><g id="tight-bounds" transform="matrix(1,0,0,1,0.13999999999998636,0.1398273738596174)"><svg viewBox="0 0 279.72 279.72" height="279.72" width="279.72"><g><svg viewBox="0 0 279.72 279.72" height="279.72" width="279.72"><g><svg viewBox="0 0 279.72 279.72" height="279.72" width="279.72"><g id="textblocktransform"><svg viewBox="0 0 279.72 279.72" height="279.72" width="279.72" id="textblock"><g><svg viewBox="0 0 279.72 279.72" height="279.72" width="279.72"><g transform="matrix(1,0,0,1,57.446704652707865,57.446704652707865)"><svg viewBox="0 0 164.8265906945843 164.8265906945843" height="164.8265906945843" width="164.8265906945843"><g id="icon-0"><circle r="82" cx="82.41329534729215" cy="82.41329534729215" fill="#d9bb63" data-fill-palette-color="accent"></circle><svg xmlns="http://www.w3.org/2000/svg" xmlns:xlink="http://www.w3.org/1999/xlink" version="1.1" x="24.72398860418764" y="24.723988604187646" viewBox="27.337 0.023 45.382999999999996 99.97200000000001" enable-background="new 0 0 100 100" xml:space="preserve" height="115.378613486209" width="115.378613486209" class="icon-jxe-0" data-fill-palette-color="quaternary" id="jxe-0"><path d="M54.229 46.909C70.131 49.293 72.719 33.323 72.719 33.323S51.244 34.935 53.446 45.818A11.6 11.6 0 0 0 51.371 47.875L51.293 40.305V34.482S51.66 32.465 53.717 30.294C70.132 33.064 72.72 16.717 72.72 16.717S51.786 18.348 53.399 28.806C52.646 29.394 51.979 30.013 51.372 30.813L50.521 22.153C63.865 14.458 49.758 0.023 49.758 0.023S36.038 14.458 49.152 22.017L48.321 30.813C47.827 30.157 47.325 29.559 46.601 29.017 48.495 18.348 27.338 16.717 27.338 16.717S29.888 32.842 46.011 30.294C48.117 32.465 48.494 34.482 48.494 34.482V40.305L48.32 47.875C47.826 47.179 47.21 46.591 46.543 46.012 49.151 34.935 27.338 33.324 27.338 33.324S29.888 49.102 45.567 46.91C47.992 49.227 48.494 51.554 48.494 51.554V57.086L48.32 64.705C47.826 63.97 47.21 63.372 46.543 62.793 49.15 51.68 27.337 50.134 27.337 50.134S29.887 65.881 45.566 63.661C47.991 66.074 48.493 68.353 48.493 68.353V73.838L48.319 81.466C47.825 80.818 47.209 80.209 46.542 79.651 49.206 68.489 27.337 66.934 27.337 66.934S29.887 82.595 45.508 80.5C47.991 82.827 48.493 85.143 48.493 85.143V99.995H51.292V85.144S51.737 82.829 54.229 80.501C70.131 82.925 72.719 66.935 72.719 66.935S51.187 68.49 53.446 79.439A9.4 9.4 0 0 0 51.371 81.467L51.293 73.839V68.354S51.738 66.075 54.23 63.662C70.132 66.075 72.72 50.135 72.72 50.135S51.244 51.68 53.445 62.599C52.644 63.198 51.977 63.921 51.37 64.704L51.292 57.085V51.553S51.737 49.227 54.229 46.909" fill="#3d3028" data-fill-palette-color="quaternary"></path></svg></g></svg></g><g id="text-0"><path d="M3.655 93.953l-2.856-1.905 4.075-11.008c0.39-1.054 0.926-1.95 1.609-2.687 0.689-0.735 1.461-1.301 2.315-1.7 0.855-0.398 1.761-0.614 2.718-0.646 0.96-0.039 1.911 0.116 2.854 0.465v0c1.244 0.46 2.312 1.124 3.205 1.99 0.886 0.864 1.547 1.894 1.982 3.09 0.433 1.202 0.621 2.556 0.562 4.06-0.054 1.513-0.403 3.141-1.048 4.882v0l-1.658 4.478 8.047 5.256 1.011-2.729 2.851 1.859-3.301 8.916-2.851-1.859 0.887-2.396-19.409-12.746zM7.625 83.231l-1.589 4.291 8.524 5.567 1.538-4.153c0.361-0.975 0.574-1.913 0.639-2.812 0.062-0.892-0.024-1.714-0.261-2.463-0.236-0.75-0.628-1.401-1.175-1.954-0.551-0.561-1.256-1.001-2.113-1.318v0c-0.504-0.187-1.025-0.287-1.564-0.3-0.541-0.007-1.06 0.099-1.557 0.317-0.502 0.209-0.964 0.544-1.388 1.004-0.424 0.461-0.775 1.068-1.054 1.821z" fill="#f1ede4" data-fill-palette-color="primary"></path><path d="M42.303 31.139l-1.661-2.982 5.717-5.26 13.553 23.869 2.45-2.254 1.693 2.953-5.317 4.892-13.591-23.834z" fill="#f1ede4" data-fill-palette-color="primary"></path><path d="M115.103 21.572l-0.059-1.385c-0.679 0.79-1.401 1.437-2.167 1.939-0.761 0.494-1.589 0.866-2.483 1.115v0c-1.056 0.294-2.098 0.363-3.126 0.208-1.035-0.154-1.988-0.49-2.857-1.009-0.876-0.517-1.642-1.202-2.3-2.056-0.658-0.853-1.14-1.831-1.447-2.933v-0.001c-0.502-1.802-0.645-3.541-0.431-5.216 0.215-1.676 0.713-3.205 1.495-4.59 0.79-1.379 1.825-2.569 3.103-3.57 1.281-0.994 2.732-1.717 4.353-2.168v0c0.935-0.26 1.851-0.367 2.748-0.319 0.892 0.056 1.663 0.233 2.31 0.531v0l-0.038-1.076 3.742-1.042 0.756 17.125 2.996-0.834 0.164 3.4zM110.382 19.799v0c0.457-0.127 0.909-0.315 1.354-0.561 0.448-0.24 0.865-0.509 1.254-0.806 0.382-0.295 0.732-0.61 1.052-0.945 0.326-0.337 0.603-0.671 0.83-1.002v0l-0.469-10.978c-0.437-0.32-1.04-0.533-1.808-0.638-0.76-0.1-1.691 0.003-2.793 0.311v0c-0.955 0.266-1.845 0.724-2.672 1.374-0.819 0.648-1.493 1.444-2.02 2.388-0.527 0.944-0.871 2.014-1.03 3.21-0.158 1.203-0.047 2.487 0.333 3.853v0c0.221 0.794 0.529 1.472 0.925 2.035 0.396 0.564 0.853 1.009 1.372 1.336 0.518 0.327 1.092 0.526 1.72 0.597 0.629 0.071 1.279 0.014 1.952-0.174z" fill="#f1ede4" data-fill-palette-color="primary"></path><path d="M171.356 4.139l1.613-3.019 7.304 1.912-0.986 1.864c1.077-0.504 2.197-0.825 3.358-0.961 1.161-0.136 2.326-0.051 3.494 0.255v0c0.999 0.262 1.861 0.65 2.585 1.164 0.726 0.508 1.266 1.132 1.62 1.874 0.346 0.747 0.481 1.594 0.406 2.542-0.077 0.954-0.408 2-0.995 3.138v0l-4.557 8.678 2.756 0.722-1.571 3.02-6.543-1.714 5.924-11.253c0.728-1.375 0.907-2.512 0.535-3.41-0.378-0.9-1.252-1.529-2.622-1.888v0c-0.972-0.255-1.949-0.287-2.93-0.096-0.981 0.191-1.963 0.554-2.948 1.089v0l-6.913 13.213-3.788-0.992 7.965-15.167z" fill="#f1ede4" data-fill-palette-color="primary"></path><path d="M236.672 37.182l2.865-1.87 2.419 2.303 4.157-2.65 4.098 1.603-5.547 3.624 3.048 2.903-2.872 1.863-3.049-2.903-9.293 6.058c-0.224 0.144-0.447 0.292-0.671 0.446-0.228 0.149-0.444 0.329-0.645 0.541v0c-0.399 0.42-0.565 0.826-0.496 1.22 0.059 0.394 0.336 0.826 0.831 1.298v0c0.531 0.505 1.315 0.958 2.352 1.356v0l-1.656 2.226c-0.722-0.234-1.373-0.502-1.953-0.804-0.59-0.301-1.166-0.719-1.727-1.253v0c-0.586-0.558-1.055-1.139-1.405-1.743-0.346-0.609-0.517-1.229-0.513-1.861-0.006-0.632 0.196-1.264 0.605-1.896 0.404-0.637 1.067-1.263 1.991-1.879v0l9.85-6.308z" fill="#f1ede4" data-fill-palette-color="primary"></path><path d="M273.663 99.923v0c0.471-0.176 0.857-0.416 1.159-0.719 0.311-0.299 0.538-0.646 0.682-1.043 0.138-0.394 0.2-0.825 0.187-1.293-0.02-0.466-0.113-0.943-0.281-1.431v0c-0.166-0.482-0.38-0.925-0.645-1.329-0.269-0.395-0.575-0.718-0.92-0.968-0.344-0.251-0.713-0.412-1.107-0.483-0.396-0.078-0.798-0.047-1.207 0.094v0c-0.489 0.168-0.841 0.462-1.059 0.883-0.217 0.421-0.345 1.015-0.384 1.782v0l-0.046 3.958c-0.022 1.203-0.346 2.226-0.972 3.068-0.632 0.845-1.533 1.468-2.702 1.869v0c-1.05 0.361-2.036 0.486-2.96 0.375-0.924-0.111-1.771-0.418-2.541-0.92-0.768-0.496-1.45-1.17-2.045-2.021-0.588-0.853-1.075-1.841-1.461-2.964v0c-0.234-0.68-0.404-1.348-0.512-2.005-0.101-0.659-0.131-1.295-0.09-1.907 0.043-0.605 0.165-1.164 0.365-1.675 0.201-0.512 0.481-0.951 0.842-1.319v0l-0.666-1.941 3.407-0.329 1.323 3.852c-0.496 0.104-0.897 0.312-1.202 0.623-0.302 0.303-0.519 0.669-0.653 1.099-0.133 0.429-0.178 0.899-0.136 1.409 0.036 0.512 0.143 1.028 0.322 1.55v0c0.181 0.528 0.42 0.996 0.715 1.404 0.289 0.41 0.62 0.743 0.996 0.997 0.367 0.251 0.776 0.412 1.23 0.486 0.444 0.069 0.911 0.019 1.399-0.149v0c0.462-0.159 0.828-0.469 1.098-0.931 0.27-0.462 0.407-1.081 0.413-1.858v0l0.075-3.778c0.051-1.228 0.388-2.277 1.011-3.149 0.617-0.869 1.437-1.479 2.46-1.83v0c0.904-0.311 1.781-0.435 2.629-0.372 0.855 0.061 1.656 0.309 2.404 0.746 0.75 0.443 1.432 1.084 2.044 1.922 0.619 0.835 1.142 1.874 1.568 3.115v0c0.247 0.72 0.406 1.407 0.476 2.061 0.063 0.657 0.055 1.266-0.026 1.825-0.081 0.559-0.221 1.065-0.42 1.517-0.206 0.454-0.461 0.849-0.768 1.183v0l0.705 2.05-3.408 0.329z" fill="#f1ede4" data-fill-palette-color="primary"></path><path d="M8.377 140.426c0-1.903 1.542-3.445 3.445-3.445 1.903 0 3.445 1.542 3.445 3.445 0 1.903-1.542 3.445-3.445 3.445-1.903 0-3.445-1.542-3.445-3.445z" fill="#f1ede4" data-fill-palette-color="primary"></path><path d="M271.979 140.426c0-1.903 1.542-3.445 3.445-3.445 1.903 0 3.445 1.542 3.445 3.445 0 1.903-1.542 3.445-3.445 3.445-1.903 0-3.445-1.542-3.445-3.445z" fill="#f1ede4" data-fill-palette-color="primary"></path></g><g id="text-1"><path d="M10.143 177.722l2.254-0.226 0.546 1.628 15.335-1.496-0.603-1.796 2.261-0.206 2.766 8.25c0.231 0.688 0.327 1.337 0.288 1.946-0.036 0.616-0.189 1.171-0.458 1.666-0.266 0.502-0.639 0.939-1.117 1.313-0.485 0.376-1.052 0.673-1.7 0.891v0c-1.158 0.388-2.25 0.426-3.275 0.114-1.016-0.307-1.911-0.924-2.685-1.849v0c-0.213 0.66-0.569 1.236-1.066 1.727-0.507 0.486-1.134 0.855-1.882 1.105v0c-0.847 0.284-1.676 0.37-2.487 0.259-0.817-0.109-1.57-0.379-2.259-0.81-0.696-0.429-1.314-0.999-1.854-1.709-0.533-0.712-0.954-1.528-1.262-2.448v0zM21.731 185.113l-1.375-4.101-6.561 0.654 1.364 4.07c0.182 0.543 0.433 1.007 0.754 1.393 0.323 0.392 0.689 0.693 1.098 0.902 0.404 0.218 0.841 0.344 1.308 0.379 0.468 0.035 0.94-0.028 1.417-0.188v0c0.41-0.138 0.767-0.316 1.069-0.535 0.302-0.219 0.54-0.464 0.714-0.736 0.174-0.272 0.282-0.566 0.323-0.882 0.035-0.314-0.002-0.632-0.111-0.956zM30.437 184.072l-1.314-3.922-6.489 0.64 1.348 4.021c0.162 0.483 0.393 0.91 0.694 1.28 0.299 0.364 0.647 0.656 1.045 0.876 0.395 0.213 0.828 0.341 1.298 0.382 0.466 0.05 0.947-0.008 1.443-0.175v0c0.377-0.126 0.716-0.291 1.016-0.495 0.295-0.195 0.535-0.426 0.717-0.693 0.185-0.261 0.3-0.553 0.347-0.878 0.052-0.327 0.018-0.672-0.105-1.036z" fill="#f1ede4" data-fill-palette-color="primary"></path><path d="M34.88 203.579l-3.594 0.838-1.155-2.326 1.57-0.37c-0.369-0.744-0.874-1.281-1.513-1.611-0.633-0.333-1.346-0.513-2.138-0.54v0l-6.649 1.582 0.982 1.979-2.202 0.532-2.137-4.304 11.058-2.638-1.126-2.269 2.211-0.514 2.23 4.493-1.818 0.435c0.349 0.092 0.691 0.206 1.025 0.345 0.327 0.141 0.637 0.311 0.93 0.508 0.284 0.194 0.542 0.417 0.775 0.667 0.237 0.257 0.428 0.532 0.574 0.826v0c0.137 0.275 0.251 0.514 0.345 0.717 0.093 0.203 0.186 0.422 0.279 0.657 0.093 0.234 0.211 0.566 0.353 0.993z" fill="#f1ede4" data-fill-palette-color="primary"></path><path d="M35.13 207.894l2.15-0.731 2.638 4.204-10.746 3.716 1.13 1.8-2.139 0.749-2.51-4 10.741-3.725zM42.547 206.75v0c0.195-0.122 0.403-0.199 0.622-0.23 0.22-0.031 0.435-0.022 0.647 0.027 0.206 0.052 0.401 0.14 0.585 0.263 0.184 0.123 0.342 0.288 0.472 0.495v0c0.122 0.195 0.199 0.403 0.23 0.622 0.034 0.226 0.029 0.439-0.018 0.642-0.052 0.206-0.14 0.401-0.263 0.585-0.123 0.184-0.282 0.338-0.477 0.461v0c-0.195 0.122-0.405 0.201-0.631 0.235-0.226 0.034-0.445 0.032-0.66-0.006-0.214-0.039-0.415-0.123-0.603-0.252-0.19-0.12-0.347-0.277-0.469-0.472v0c-0.13-0.207-0.207-0.422-0.232-0.646-0.031-0.22-0.019-0.437 0.035-0.652 0.054-0.215 0.146-0.417 0.275-0.606 0.129-0.188 0.291-0.344 0.487-0.466z" fill="#f1ede4" data-fill-palette-color="primary"></path><path d="M41.12 216.705l2.054-0.969 3.128 3.919-1.266 0.596c0.772 0.161 1.496 0.436 2.172 0.825 0.667 0.388 1.25 0.895 1.752 1.523v0c0.427 0.535 0.733 1.081 0.918 1.638 0.18 0.562 0.218 1.112 0.113 1.651-0.11 0.534-0.372 1.038-0.788 1.514-0.421 0.479-1.013 0.902-1.774 1.268v0l-5.866 2.806 1.176 1.473-2.04 0.986-2.796-3.503 7.613-3.638c0.934-0.442 1.48-0.976 1.64-1.604 0.154-0.623-0.062-1.303-0.65-2.04v0c-0.414-0.518-0.92-0.923-1.518-1.213-0.598-0.291-1.264-0.487-1.997-0.59v0l-8.922 4.281-1.62-2.029 10.252-4.914z" fill="#f1ede4" data-fill-palette-color="primary"></path><path d="M52.495 244.076v0c-0.651-0.084-1.242-0.26-1.773-0.527-0.526-0.263-1.031-0.615-1.515-1.058v0c-0.541-0.494-0.95-1.056-1.226-1.686-0.276-0.64-0.422-1.298-0.438-1.974-0.015-0.666 0.1-1.336 0.346-2.009 0.251-0.669 0.633-1.284 1.147-1.846v0c0.838-0.918 1.765-1.612 2.781-2.083 1.016-0.471 2.054-0.728 3.114-0.772 1.05-0.043 2.081 0.118 3.091 0.483 1.015 0.369 1.937 0.932 2.767 1.69v0c0.469 0.428 0.847 0.905 1.132 1.43 0.29 0.52 0.464 1.014 0.52 1.481v0l0.589-0.397 1.926 1.758-11.104 7.642c-0.944 0.651-1.837 1.121-2.678 1.411-0.847 0.286-1.664 0.404-2.452 0.356-0.788-0.048-1.561-0.263-2.319-0.643-0.758-0.381-1.519-0.919-2.282-1.616v0c-0.345-0.315-0.68-0.673-1.005-1.073-0.319-0.396-0.603-0.815-0.85-1.258-0.247-0.443-0.451-0.899-0.611-1.366-0.154-0.462-0.24-0.923-0.255-1.382v0l2.478-0.261c0.004 0.296 0.05 0.613 0.14 0.95 0.089 0.327 0.218 0.662 0.386 1.005 0.168 0.333 0.368 0.658 0.6 0.974 0.237 0.32 0.505 0.617 0.804 0.889v0c0.454 0.414 0.911 0.742 1.372 0.983 0.461 0.241 0.948 0.374 1.463 0.401 0.515 0.026 1.072-0.066 1.67-0.276 0.593-0.215 1.321-0.623 2.182-1.226zM51.137 241.262v0c0.495 0.452 1.036 0.785 1.624 1.001 0.588 0.215 1.201 0.336 1.84 0.361v0l5.987-4.119c0.023-0.357-0.067-0.77-0.272-1.24-0.214-0.47-0.602-0.961-1.164-1.474v0c-0.485-0.442-1.053-0.782-1.706-1.019-0.658-0.232-1.344-0.329-2.059-0.292-0.715 0.037-1.44 0.221-2.176 0.551-0.731 0.335-1.412 0.847-2.043 1.538v0c-0.372 0.407-0.647 0.822-0.825 1.245-0.174 0.418-0.261 0.83-0.262 1.235 0.004 0.41 0.093 0.804 0.268 1.181 0.185 0.377 0.448 0.721 0.788 1.032z" fill="#f1ede4" data-fill-palette-color="primary"></path><path d="M66.698 242.711l1.738-1.462 3.984 2.96-8.665 7.363 1.706 1.268-1.72 1.473-3.791-2.815 8.656-7.37zM73.194 238.953v0c0.137-0.185 0.303-0.332 0.496-0.44 0.194-0.108 0.398-0.178 0.613-0.21 0.211-0.026 0.424-0.015 0.641 0.033 0.217 0.048 0.423 0.145 0.619 0.29v0c0.185 0.137 0.332 0.303 0.44 0.496 0.114 0.198 0.186 0.399 0.216 0.604 0.026 0.211 0.015 0.424-0.033 0.641-0.048 0.217-0.14 0.417-0.277 0.603v0c-0.137 0.185-0.305 0.334-0.503 0.448-0.198 0.114-0.403 0.192-0.617 0.233-0.213 0.041-0.431 0.036-0.653-0.016-0.221-0.042-0.424-0.132-0.609-0.269v0c-0.196-0.146-0.346-0.318-0.45-0.517-0.108-0.194-0.176-0.401-0.204-0.621-0.028-0.22-0.015-0.442 0.037-0.664 0.052-0.222 0.147-0.426 0.284-0.611z" fill="#f1ede4" data-fill-palette-color="primary"></path><path d="M75.478 248.746l1.562-1.648 4.338 2.518-0.964 1.014c0.778-0.13 1.552-0.136 2.323-0.019 0.762 0.119 1.49 0.381 2.185 0.783v0c0.592 0.343 1.075 0.741 1.45 1.193 0.372 0.458 0.607 0.957 0.704 1.498 0.092 0.537 0.03 1.103-0.185 1.696-0.219 0.599-0.616 1.208-1.193 1.826v0l-4.447 4.744 1.63 0.946-1.544 1.658-3.876-2.249 5.774-6.153c0.71-0.75 1.025-1.447 0.947-2.09-0.082-0.637-0.531-1.192-1.346-1.665v0c-0.574-0.333-1.192-0.526-1.855-0.58-0.663-0.054-1.355 0.005-2.075 0.176v0l-6.761 7.227-2.246-1.304 7.77-8.299z" fill="#f1ede4" data-fill-palette-color="primary"></path><path d="M96.007 270.127v0c-0.637 0.158-1.252 0.208-1.843 0.152-0.585-0.054-1.184-0.199-1.796-0.436v0c-0.684-0.264-1.268-0.64-1.754-1.127-0.489-0.496-0.864-1.056-1.124-1.681-0.256-0.615-0.392-1.281-0.406-1.998-0.008-0.714 0.125-1.426 0.399-2.136v0c0.448-1.159 1.06-2.142 1.836-2.949 0.776-0.808 1.651-1.424 2.623-1.849 0.963-0.421 1.982-0.645 3.055-0.671 1.08-0.024 2.143 0.166 3.192 0.571v0c0.592 0.229 1.117 0.537 1.574 0.923 0.459 0.38 0.8 0.777 1.021 1.192v0l0.405-0.584 2.432 0.94-7.576 11.148c-0.644 0.949-1.305 1.711-1.984 2.286-0.686 0.573-1.404 0.98-2.156 1.221-0.752 0.241-1.55 0.321-2.395 0.242-0.845-0.08-1.749-0.306-2.712-0.678v0c-0.436-0.169-0.878-0.381-1.326-0.636-0.441-0.253-0.857-0.541-1.249-0.864-0.391-0.323-0.746-0.674-1.064-1.052-0.312-0.375-0.558-0.773-0.739-1.195v0l2.215-1.142c0.111 0.275 0.269 0.553 0.474 0.835 0.202 0.272 0.443 0.538 0.725 0.797 0.278 0.25 0.582 0.479 0.912 0.689 0.337 0.213 0.694 0.392 1.072 0.538v0c0.573 0.221 1.118 0.361 1.635 0.418 0.517 0.058 1.02 0.005 1.509-0.157 0.489-0.163 0.975-0.45 1.456-0.863 0.475-0.415 1.005-1.06 1.589-1.934zM93.721 267.997v0c0.625 0.242 1.251 0.356 1.877 0.344 0.626-0.012 1.241-0.123 1.845-0.331v0l4.085-6.009c-0.108-0.341-0.342-0.693-0.702-1.057-0.37-0.36-0.909-0.677-1.619-0.952v0c-0.612-0.237-1.265-0.347-1.96-0.331-0.697 0.022-1.372 0.181-2.025 0.475-0.653 0.294-1.262 0.728-1.828 1.302-0.56 0.577-1.008 1.302-1.346 2.174v0c-0.199 0.514-0.305 1.001-0.317 1.461-0.01 0.453 0.057 0.868 0.203 1.246 0.152 0.381 0.378 0.715 0.679 1.003 0.309 0.284 0.679 0.509 1.108 0.675z" fill="#f1ede4" data-fill-palette-color="primary"></path><path d="M131.806 261.514l0.816-2.114 6.227 0.905-0.815 2.114-1.72-0.25-6.395 16.476-3.316-0.482-2.927-16.689-5.158 13.28 1.927 0.281-0.815 2.114-6.238-0.907 0.815-2.114 1.679 0.244 5.6-14.359-1.896-0.275 0.836-2.111 5.274 0.766 2.883 16.555 5.099-13.161z" fill="#f1ede4" data-fill-palette-color="primary"></path><path d="M147.969 279.452l0.199-0.903c-0.568 0.39-1.141 0.683-1.718 0.878-0.57 0.188-1.163 0.286-1.777 0.293v0c-0.733 0.008-1.415-0.123-2.046-0.396-0.638-0.279-1.194-0.66-1.668-1.143-0.466-0.476-0.839-1.045-1.119-1.705-0.273-0.66-0.414-1.371-0.422-2.131v0c-0.014-1.242 0.189-2.383 0.61-3.421 0.421-1.038 1.004-1.935 1.75-2.69 0.738-0.748 1.601-1.334 2.587-1.757 0.993-0.423 2.052-0.641 3.176-0.654v0c0.635-0.007 1.237 0.084 1.804 0.272 0.568 0.182 1.031 0.425 1.39 0.728v0l0.16-0.693 2.586-0.029-2.439 11.106 2.063-0.024-0.477 2.215zM145.245 277.504v0c0.314-0.004 0.638-0.046 0.972-0.127 0.327-0.081 0.64-0.182 0.939-0.304 0.292-0.122 0.569-0.265 0.833-0.428 0.263-0.157 0.499-0.323 0.706-0.5v0l1.573-7.118c-0.227-0.284-0.575-0.52-1.044-0.71-0.477-0.197-1.096-0.291-1.857-0.283v0c-0.656 0.007-1.304 0.148-1.943 0.42-0.639 0.28-1.207 0.677-1.704 1.193-0.497 0.515-0.901 1.145-1.214 1.888-0.306 0.743-0.453 1.583-0.442 2.518v0c0.006 0.551 0.089 1.043 0.247 1.474 0.158 0.424 0.375 0.785 0.651 1.081 0.283 0.297 0.617 0.523 1.003 0.68 0.393 0.149 0.819 0.221 1.28 0.216z" fill="#f1ede4" data-fill-palette-color="primary"></path><path d="M158.23 267.721l0.229-2.259 2.2-0.291 0.352-3.247 2.543-1.456-0.445 4.378 2.771-0.367-0.228 2.259-2.772 0.367-0.74 7.333c-0.02 0.172-0.039 0.347-0.057 0.526-0.012 0.178-0.005 0.363 0.021 0.557v0c0.05 0.381 0.19 0.637 0.419 0.768 0.229 0.132 0.568 0.168 1.017 0.108v0c0.484-0.064 1.047-0.283 1.688-0.656v0l0.448 1.789c-0.414 0.273-0.821 0.5-1.22 0.679-0.399 0.18-0.854 0.303-1.366 0.371v0c-0.533 0.071-1.029 0.069-1.49-0.004-0.453-0.074-0.846-0.244-1.176-0.509-0.33-0.259-0.573-0.628-0.728-1.108-0.161-0.472-0.206-1.075-0.134-1.809v0l0.837-7.716z" fill="#f1ede4" data-fill-palette-color="primary"></path><path d="M177.744 263.827l-0.024-2.27 4.187-1.039 0.178 11.369 1.931-0.479 0.044 2.266-4.329 1.074-0.031-1.384c-0.195 0.343-0.421 0.651-0.677 0.923-0.265 0.267-0.541 0.501-0.829 0.702-0.288 0.201-0.581 0.367-0.879 0.499-0.297 0.138-0.577 0.24-0.842 0.305v0c-0.562 0.14-1.114 0.19-1.656 0.152-0.542-0.038-1.024-0.17-1.446-0.396v0c-0.255-0.16-0.509-0.356-0.761-0.588-0.245-0.234-0.466-0.532-0.664-0.892-0.192-0.369-0.349-0.812-0.47-1.329-0.121-0.517-0.188-1.133-0.2-1.849v0l-0.087-5.438-1.748 0.434-0.013-2.273 4.227-1.049 0.09 6.926c0.017 1.635 0.285 2.774 0.804 3.414 0.517 0.634 1.317 0.817 2.401 0.548v0c0.481-0.119 0.888-0.307 1.22-0.562 0.327-0.247 0.607-0.553 0.84-0.92 0.226-0.365 0.403-0.737 0.532-1.114v0l-0.101-7.451z" fill="#f1ede4" data-fill-palette-color="primary"></path><path d="M196.548 254.862l0.531 3.651-2.416 0.954-0.236-1.595c-0.773 0.305-1.35 0.762-1.732 1.371-0.385 0.602-0.625 1.297-0.719 2.085v0l1.015 6.759 2.055-0.811 0.344 2.239-4.47 1.766-1.694-11.242-2.356 0.931-0.325-2.247 4.665-1.843 0.279 1.849c0.121-0.34 0.264-0.671 0.431-0.992 0.169-0.314 0.364-0.609 0.585-0.884 0.218-0.266 0.461-0.505 0.73-0.717 0.276-0.214 0.566-0.381 0.871-0.501v0c0.286-0.113 0.534-0.207 0.744-0.283 0.21-0.076 0.436-0.15 0.678-0.223 0.241-0.073 0.581-0.162 1.02-0.267z" fill="#f1ede4" data-fill-palette-color="primary"></path><path d="M213.832 253.396l-8.955 4.901c0.051 0.107 0.093 0.2 0.127 0.276 0.034 0.077 0.07 0.149 0.106 0.217v0c0.258 0.471 0.574 0.867 0.949 1.187 0.378 0.327 0.785 0.561 1.221 0.705 0.43 0.146 0.882 0.202 1.356 0.165 0.47-0.042 0.932-0.188 1.384-0.436v0c0.594-0.325 1.098-0.756 1.513-1.293 0.411-0.543 0.673-1.148 0.785-1.814v0l2.326 0.302c-0.067 0.474-0.204 0.943-0.411 1.407-0.202 0.46-0.463 0.906-0.785 1.337-0.325 0.424-0.702 0.818-1.132 1.181-0.427 0.369-0.891 0.691-1.394 0.965v0c-0.723 0.395-1.461 0.645-2.216 0.748-0.755 0.103-1.494 0.054-2.217-0.148-0.717-0.205-1.391-0.564-2.023-1.077-0.629-0.523-1.172-1.204-1.631-2.044v0c-0.529-0.968-0.856-1.971-0.979-3.009-0.129-1.035-0.063-2.034 0.198-2.997 0.252-0.965 0.69-1.858 1.316-2.678 0.626-0.82 1.419-1.493 2.381-2.019v0c0.741-0.405 1.471-0.642 2.19-0.709 0.719-0.067 1.395-0.003 2.027 0.192 0.629 0.189 1.195 0.496 1.697 0.921 0.503 0.425 0.912 0.925 1.227 1.501v0c0.208 0.38 0.39 0.757 0.548 1.132 0.151 0.379 0.282 0.741 0.392 1.087zM206.498 251.358v0c-0.453 0.248-0.837 0.55-1.152 0.905-0.321 0.359-0.57 0.754-0.748 1.185-0.187 0.429-0.308 0.885-0.361 1.368-0.063 0.48-0.061 0.964 0.007 1.452v0l6.631-3.629c-0.249-0.469-0.534-0.845-0.857-1.131-0.329-0.281-0.684-0.473-1.066-0.574-0.378-0.095-0.776-0.109-1.192-0.04-0.419 0.078-0.84 0.233-1.262 0.464z" fill="#f1ede4" data-fill-palette-color="primary"></path><path d="M229.082 226.651l-1.09-1.991 4.689-4.228 1.091 1.992-1.307 1.178 7.503 13.451 1.416-1.276 1.113 1.97-4.689 4.228-1.106-1.977 1.275-1.15-3.478-6.267-8.158 7.355 3.486 6.26 1.416-1.276 1.106 1.977-4.682 4.221-1.106-1.978 1.276-1.15-7.488-13.465-1.408 1.269-1.09-1.992 4.689-4.227 1.091 1.991-1.307 1.178 2.93 5.267 8.174-7.368-2.93-5.268z" fill="#f1ede4" data-fill-palette-color="primary"></path><path d="M243.5 228.514v0c-0.573-0.457-1.068-0.967-1.484-1.531-0.412-0.569-0.743-1.168-0.993-1.795-0.255-0.632-0.42-1.281-0.495-1.949-0.081-0.671-0.076-1.337 0.013-1.998 0.089-0.661 0.265-1.306 0.526-1.937 0.262-0.631 0.61-1.219 1.045-1.765v0c0.548-0.688 1.18-1.228 1.896-1.622 0.716-0.394 1.456-0.634 2.221-0.72 0.76-0.091 1.524-0.03 2.293 0.181 0.769 0.211 1.481 0.578 2.136 1.1v0c0.579 0.461 1.077 0.979 1.494 1.552 0.417 0.574 0.754 1.177 1.009 1.809 0.245 0.633 0.413 1.285 0.503 1.955 0.091 0.67 0.089 1.339-0.004 2.005-0.094 0.666-0.271 1.315-0.533 1.945-0.262 0.631-0.614 1.224-1.058 1.781v0c-0.553 0.693-1.184 1.234-1.896 1.622-0.707 0.383-1.445 0.62-2.215 0.712-0.771 0.082-1.538 0.015-2.302-0.202-0.766-0.227-1.484-0.607-2.156-1.143zM245.032 226.307v0c0.469 0.374 0.95 0.645 1.44 0.814 0.496 0.172 0.976 0.242 1.44 0.21 0.473-0.034 0.92-0.163 1.341-0.39 0.431-0.228 0.812-0.549 1.143-0.964v0c0.387-0.486 0.659-1.046 0.817-1.679 0.152-0.638 0.18-1.285 0.086-1.939-0.099-0.659-0.329-1.311-0.69-1.956-0.361-0.645-0.863-1.224-1.507-1.738v0c-0.464-0.37-0.941-0.634-1.431-0.792-0.489-0.149-0.967-0.204-1.434-0.166-0.472 0.043-0.919 0.178-1.341 0.405-0.416 0.231-0.787 0.551-1.113 0.96v0c-0.392 0.491-0.666 1.049-0.825 1.673-0.153 0.628-0.182 1.27-0.088 1.924 0.094 0.655 0.321 1.3 0.681 1.935 0.36 0.635 0.854 1.203 1.481 1.703z" fill="#f1ede4" data-fill-palette-color="primary"></path><path d="M250.176 210.754l-1.68-1.527 2.401-4.344 1.034 0.942c-0.146-0.775-0.169-1.549-0.068-2.322 0.103-0.764 0.349-1.498 0.737-2.201v0c0.439-0.794 0.981-1.392 1.626-1.793 0.635-0.399 1.345-0.537 2.13-0.414v0c-0.135-0.434-0.228-0.88-0.277-1.338-0.056-0.462-0.066-0.926-0.032-1.393 0.032-0.461 0.112-0.923 0.24-1.386 0.128-0.463 0.311-0.909 0.548-1.337v0c0.331-0.599 0.718-1.09 1.162-1.475 0.45-0.381 0.943-0.623 1.478-0.727 0.535-0.103 1.102-0.053 1.7 0.15 0.604 0.206 1.221 0.591 1.85 1.155v0l4.835 4.347 0.927-1.677 1.691 1.508-2.183 3.95-6.272-5.644c-0.762-0.7-1.465-1.001-2.11-0.902-0.635 0.096-1.181 0.556-1.636 1.38v0c-0.321 0.58-0.501 1.203-0.541 1.867-0.04 0.664 0.03 1.353 0.21 2.066v0l7.376 6.612-1.256 2.273-6.272-5.644c-0.765-0.694-1.468-0.995-2.11-0.902-0.635 0.096-1.181 0.556-1.636 1.38v0c-0.321 0.58-0.501 1.203-0.541 1.867-0.04 0.664 0.033 1.354 0.219 2.071v0l7.367 6.608-1.256 2.272-8.46-7.594z" fill="#f1ede4" data-fill-palette-color="primary"></path><path d="M271.415 175.563l-3.223 9.687c0.11 0.044 0.204 0.083 0.282 0.116 0.077 0.033 0.152 0.062 0.225 0.086v0c0.51 0.17 1.011 0.244 1.503 0.224 0.499-0.018 0.957-0.123 1.374-0.315 0.415-0.186 0.783-0.453 1.106-0.802 0.315-0.351 0.555-0.772 0.718-1.262v0c0.214-0.642 0.29-1.301 0.227-1.977-0.069-0.678-0.289-1.299-0.66-1.864v0l1.91-1.362c0.274 0.393 0.493 0.83 0.656 1.311 0.166 0.474 0.278 0.979 0.335 1.513 0.051 0.532 0.043 1.077-0.025 1.636-0.061 0.561-0.183 1.113-0.363 1.656v0c-0.26 0.782-0.632 1.467-1.115 2.056-0.483 0.59-1.058 1.057-1.725 1.402-0.664 0.338-1.403 0.534-2.214 0.587-0.817 0.045-1.679-0.084-2.586-0.386v0c-1.046-0.348-1.968-0.861-2.766-1.538-0.799-0.671-1.431-1.447-1.895-2.33-0.473-0.878-0.759-1.831-0.86-2.857-0.1-1.026 0.023-2.06 0.37-3.099v0c0.267-0.801 0.64-1.472 1.121-2.011 0.481-0.539 1.019-0.952 1.615-1.239 0.589-0.289 1.213-0.45 1.871-0.481 0.658-0.031 1.298 0.057 1.92 0.264v0c0.411 0.137 0.801 0.289 1.173 0.456 0.369 0.174 0.711 0.351 1.026 0.529zM264.656 179.064v0c-0.163 0.49-0.239 0.972-0.228 1.447 0.009 0.481 0.095 0.94 0.259 1.377 0.155 0.441 0.377 0.857 0.667 1.248 0.281 0.395 0.612 0.748 0.993 1.059v0l2.387-7.173c-0.501-0.174-0.967-0.256-1.397-0.245-0.433 0.018-0.823 0.12-1.172 0.306-0.342 0.188-0.642 0.448-0.9 0.782-0.254 0.342-0.457 0.742-0.609 1.199z" fill="#f1ede4" data-fill-palette-color="primary"></path></g></svg></g></svg></g></svg></g></svg></g><defs></defs></svg><rect width="279.72" height="279.72" fill="none" stroke="none" visibility="hidden"></rect></g></svg></g></svg>