<?xml version="1.0" encoding="UTF-8"?>
<svg version="1.1" xmlns="http://www.w3.org/2000/svg" width="512" height="512">
<path d="M0 0 C0.78142365 0.00337372 1.56284729 0.00674744 2.36795044 0.01022339 C15.34717684 0.0909977 27.73369543 1.02204655 40.3125 4.4375 C41.16199219 4.6629248 42.01148438 4.88834961 42.88671875 5.12060547 C68.69090034 12.2225411 91.18285319 25.95940791 110.3125 44.4375 C111.23804688 45.29988281 112.16359375 46.16226563 113.1171875 47.05078125 C124.49344782 57.92751739 132.9254532 70.61130179 140.3125 84.4375 C140.83328125 85.36304687 141.3540625 86.28859375 141.890625 87.2421875 C152.48266419 106.92108136 157.65328986 130.19632295 158.3125 152.4375 C158.35246094 153.2934375 158.39242188 154.149375 158.43359375 155.03125 C159.58893964 199.07031689 140.36169797 235.11385155 114.24462891 268.92773438 C108.33925182 276.59860579 102.57636084 284.37881332 96.8125 292.15625 C95.91591675 293.36583374 95.91591675 293.36583374 95.0012207 294.59985352 C93.79672112 296.23530745 92.59985723 297.8764139 91.41088867 299.52319336 C88.81027239 303.11975934 86.21810141 306.61769285 83.23828125 309.91015625 C74.31106878 320.15237305 74.86895175 331.30264405 75.3125 344.4375 C76.71242188 344.61539063 76.71242188 344.61539063 78.140625 344.796875 C82.27148822 345.63118728 83.6733023 347.21181392 86.3125 350.4375 C88.81395485 355.09177487 88.64493404 359.6615428 88.625 364.8125 C88.64111328 365.6375 88.65722656 366.4625 88.67382812 367.3125 C88.67817198 372.78576023 87.91419325 376.59958945 85.3125 381.4375 C81.62637032 384.94381847 79.02578935 385.63573039 74.09765625 385.53515625 C72.75199585 385.51400757 72.75199585 385.51400757 71.37915039 385.49243164 C70.69715576 385.4743042 70.01516113 385.45617676 69.3125 385.4375 C69.33344727 386.5613208 69.35439453 387.6851416 69.37597656 388.84301758 C69.44903511 393.06049577 69.49453618 397.27791946 69.53222656 401.49584961 C69.55219343 403.31235193 69.57937687 405.12879121 69.61425781 406.94506836 C70.0721946 431.42448326 70.0721946 431.42448326 61.01171875 440.94140625 C53.30884423 447.72347738 45.44549785 449.85109175 35.3125 449.4375 C35.34730469 450.58347656 35.38210938 451.72945313 35.41796875 452.91015625 C35.44612703 454.44008939 35.47342499 455.97003854 35.5 457.5 C35.52513672 458.25216797 35.55027344 459.00433594 35.57617188 459.77929688 C35.66526886 466.63976492 34.02610374 471.02919204 30 476.6875 C25.2706392 481.52684593 21.00151511 482.77736056 14.43435669 482.90563965 C13.57172211 482.90584106 12.70908752 482.90604248 11.8203125 482.90625 C10.46315628 482.91767029 10.46315628 482.91767029 9.07858276 482.92932129 C7.1707433 482.94009226 5.26284501 482.94298764 3.35498047 482.93847656 C0.45308928 482.93750522 -2.44614692 482.97913965 -5.34765625 483.0234375 C-7.20832787 483.02864604 -9.0690086 483.03133267 -10.9296875 483.03125 C-12.21756668 483.0558429 -12.21756668 483.0558429 -13.53146362 483.08093262 C-19.77278547 483.01018339 -23.81513036 481.33481506 -28.6875 477.4375 C-33.74342136 472.24852808 -34.92392414 466.90176251 -34.86328125 459.8671875 C-34.83814453 458.72636719 -34.83814453 458.72636719 -34.8125 457.5625 C-34.80347656 456.77875 -34.79445313 455.995 -34.78515625 455.1875 C-34.76178063 453.27069945 -34.72591653 451.35405809 -34.6875 449.4375 C-36.6365625 449.5303125 -36.6365625 449.5303125 -38.625 449.625 C-48.00085909 449.56630918 -55.00859998 445.93483769 -61.6875 439.4375 C-67.66266106 432.03760467 -68.99983492 424.48403873 -68.8828125 415.22265625 C-68.8799826 414.36691513 -68.87715271 413.51117401 -68.87423706 412.62950134 C-68.86311935 409.91952009 -68.83803082 407.20987991 -68.8125 404.5 C-68.80245931 402.65299959 -68.79333537 400.80599396 -68.78515625 398.95898438 C-68.76320763 394.45169323 -68.72873654 389.94465427 -68.6875 385.4375 C-69.71049194 385.46469116 -69.71049194 385.46469116 -70.75415039 385.49243164 C-71.65125732 385.50653076 -72.54836426 385.52062988 -73.47265625 385.53515625 C-74.36090088 385.55328369 -75.24914551 385.57141113 -76.16430664 385.59008789 C-80.0147109 385.35723809 -81.92470722 384.0655224 -84.6875 381.4375 C-87.65671026 375.86845492 -88.17964421 371.25427841 -88.125 365 C-88.14498047 364.19240234 -88.16496094 363.38480469 -88.18554688 362.55273438 C-88.18087371 356.75333926 -86.99428236 352.25833667 -83.6875 347.4375 C-80.29192246 344.72103797 -79.1208244 344.4375 -74.6875 344.4375 C-74.19766117 329.93183483 -74.17905427 319.22863259 -84.12939453 308.23242188 C-87.10468315 304.80491922 -89.66240611 301.05535342 -92.3125 297.375 C-97.34578759 290.52912146 -102.46871332 283.75351605 -107.625 277 C-108.29120361 276.12545166 -108.95740723 275.25090332 -109.64379883 274.34985352 C-112.96149458 269.9969565 -116.29248282 265.65550584 -119.6484375 261.33203125 C-147.75519244 224.87418089 -161.86089182 183.18704189 -156.4765625 136.859375 C-151.86451278 102.74250585 -136.51338176 72.10350453 -112.6875 47.4375 C-111.82511719 46.51195312 -110.96273437 45.58640625 -110.07421875 44.6328125 C-98.66546869 32.70010503 -85.27208244 24.01328887 -70.6875 16.4375 C-70.08502441 16.11797363 -69.48254883 15.79844727 -68.86181641 15.46923828 C-61.26769138 11.48362479 -53.54693291 8.58303973 -45.3125 6.1875 C-44.51175049 5.95329346 -43.71100098 5.71908691 -42.88598633 5.4777832 C-28.63545712 1.55237817 -14.73613297 -0.12462974 0 0 Z M-96.3984375 50.359375 C-97.9745014 51.79020434 -99.60435785 53.16323038 -101.2734375 54.484375 C-125.55420399 74.12900808 -140.15614694 110.13044462 -143.6875 140.4375 C-146.54464379 168.65249115 -142.05253507 195.88195561 -129.6875 221.4375 C-129.36330078 222.11055176 -129.03910156 222.78360352 -128.70507812 223.47705078 C-122.83283992 235.36035778 -114.76509022 245.56487447 -106.61962891 255.95996094 C-103.88926102 259.46106951 -101.21964484 263.0056671 -98.5625 266.5625 C-98.0869165 267.19760498 -97.61133301 267.83270996 -97.12133789 268.48706055 C-91.54745251 275.94237869 -86.03602719 283.44388698 -80.52246094 290.94384766 C-78.60346693 293.55169821 -76.68106983 296.15701098 -74.7578125 298.76171875 C-74.11827637 299.62821045 -73.47874023 300.49470215 -72.81982422 301.38745117 C-71.5901538 303.05332763 -70.36003026 304.71886973 -69.12939453 306.3840332 C-68.29964111 307.50878052 -68.29964111 307.50878052 -67.453125 308.65625 C-66.96618164 309.31560547 -66.47923828 309.97496094 -65.97753906 310.65429688 C-62.98506248 314.7907558 -62.40699983 316.97658992 -62.2734375 322.07421875 C-62.23476562 323.37294922 -62.19609375 324.67167969 -62.15625 326.00976562 C-62.12479483 327.38150573 -62.09354749 328.75325061 -62.0625 330.125 C-62.02430803 331.50848785 -61.98525558 332.89195223 -61.9453125 334.27539062 C-61.85089483 337.6626245 -61.76531882 341.04985069 -61.6875 344.4375 C-57.7275 344.4375 -53.7675 344.4375 -49.6875 344.4375 C-49.0853064 343.1062207 -49.0853064 343.1062207 -48.47094727 341.74804688 C-45.51246675 336.25632945 -41.02294774 332.30196856 -36.625 327.9375 C-35.72072266 327.01324219 -34.81644531 326.08898437 -33.88476562 325.13671875 C-25.57633674 316.8342287 -17.81353435 311.94922455 -6.6875 308.4375 C-6.58736928 302.32182393 -6.51544538 296.20664241 -6.46777344 290.09033203 C-6.44786539 288.01700511 -6.42072889 285.94373276 -6.38574219 283.87060547 C-6.09984256 266.47277219 -7.08533261 251.54491002 -16.6875 236.4375 C-21.01013597 236.4375 -21.40464903 236.6589832 -24.5 239.25 C-32.45655617 245.52059446 -40.69856203 247.17587338 -50.6875 246.4375 C-62.63041648 244.68071471 -74.16415916 239.09432556 -81.6875 229.4375 C-82.85550467 227.61821162 -84.00009857 225.78375077 -85.125 223.9375 C-90.576773 215.06619973 -97.89026593 209.12890476 -108.046875 206.6015625 C-110.36781474 206.08973954 -112.69465526 205.60372687 -115.02734375 205.1484375 C-115.90519531 204.91382813 -116.78304687 204.67921875 -117.6875 204.4375 C-119.19639469 201.41971063 -119.18776276 199.81427363 -118.6875 196.4375 C-110.33110998 182.41175703 -91.84350197 175.39379548 -77.046875 171.234375 C-61.08723556 167.44860006 -44.18550473 168.43869716 -29.94921875 176.98046875 C-29.20285156 177.46128906 -28.45648438 177.94210938 -27.6875 178.4375 C-26.78 179.015 -25.8725 179.5925 -24.9375 180.1875 C-18.22469308 186.90030692 -11.94698639 195.92699088 -11.609375 205.69873047 C-11.63060096 209.07432176 -11.68910514 212.4322453 -11.92211914 215.80053711 C-11.95942139 216.58565674 -11.99672363 217.37077637 -12.03515625 218.1796875 C-12.11262085 219.22938721 -12.11262085 219.22938721 -12.19165039 220.30029297 C-11.41039175 223.61222427 -9.15226103 225.21579146 -6.6875 227.4375 C-6.38810451 222.22763471 -6.17193293 217.02288541 -6.02832031 211.80639648 C-5.96841041 210.03760502 -5.88683772 208.26939688 -5.78222656 206.50268555 C-4.8315252 195.54448061 -4.8315252 195.54448061 -9.26708984 186.00512695 C-11.32203153 184.05232314 -13.50700927 182.33698062 -15.77929688 180.64526367 C-19.53621574 177.79319707 -20.90688684 175.50520426 -22.8125 171.25 C-23.58980469 169.58904297 -23.58980469 169.58904297 -24.3828125 167.89453125 C-29.88286602 153.32103614 -29.53907572 136.4291458 -23.24609375 122.171875 C-13.92228049 103.56751443 1.71460725 93.01313872 20.8203125 86.18359375 C47.09715901 78.07308646 77.63020942 79.27149363 102.1171875 92.16796875 C104.3125 93.4375 104.3125 93.4375 105.3125 94.4375 C106.0625 97.5625 106.0625 97.5625 105.3125 101.4375 C102.77503523 103.50945864 100.10054579 105.06005301 97.265625 106.69921875 C86.72744245 112.90224948 77.86099037 123.95639636 74.65527344 135.88256836 C74.08973797 138.56177998 73.57282801 141.24725819 73.0625 143.9375 C69.26613984 161.92698488 61.74365777 175.98484858 46.4375 186.875 C33.3644353 195.04357308 21.52525138 195.8204774 6.3125 194.4375 C6.3125 231.7275 6.3125 269.0175 6.3125 307.4375 C10.2725 309.0875 14.2325 310.7375 18.3125 312.4375 C26.04331161 316.92785165 31.98819088 322.65898318 38.25 329 C39.20327604 329.94256325 40.1570496 330.88462359 41.11132812 331.82617188 C42.01173828 332.73044922 42.91214844 333.63472656 43.83984375 334.56640625 C44.65187256 335.38181885 45.46390137 336.19723145 46.30053711 337.03735352 C48.3125 339.4375 48.3125 339.4375 50.3125 344.4375 C54.2725 344.4375 58.2325 344.4375 62.3125 344.4375 C62.23386719 342.55289062 62.15523437 340.66828125 62.07421875 338.7265625 C61.76674717 322.55377162 63.16975467 311.9293007 74.35644531 299.64794922 C77.90941482 295.63289855 81.03847557 291.28891144 84.25 287 C85.61036735 285.22012109 86.97234072 283.44146849 88.3359375 281.6640625 C92.65558888 276.00692836 96.8833757 270.28504115 101.08251953 264.53808594 C104.07779212 260.44485954 107.10727089 256.38504771 110.203125 252.3671875 C135.99407677 218.81527703 149.53457388 180.39614296 143.96044922 137.74365234 C139.18143075 105.62609324 124.5323407 77.59821836 101.640625 54.7734375 C100.33269192 53.46111538 99.03641601 52.13599651 97.78515625 50.76953125 C73.40785773 24.50147273 35.75000425 14.43717569 1.3125 12.4375 C-34.920959 12.4375 -69.85578132 25.68091875 -96.3984375 50.359375 Z M-4.68359375 116.05859375 C-14.32118683 127.49971302 -16.84417237 139.68992729 -15.6875 154.4375 C-14.53074035 161.5901305 -11.635269 167.13420269 -6.6875 172.4375 C-6.3575 172.4375 -6.0275 172.4375 -5.6875 172.4375 C-5.45675781 171.47070312 -5.22601563 170.50390625 -4.98828125 169.5078125 C-0.78700639 152.48793741 6.61154524 140.65875728 20.3125 129.4375 C23.35550316 127.91599842 25.966585 128.19850607 29.3125 128.4375 C31.3125 131.4375 31.3125 131.4375 31.2890625 134.296875 C30.04754913 138.289582 27.82312312 140.13980621 24.6875 142.6875 C14.69551582 151.35353367 8.51512916 161.22172502 6.3125 174.4375 C6.27425377 176.77051986 6.26675716 179.10461508 6.3125 181.4375 C18.88454301 183.99920155 28.3298735 183.44041892 39.3125 176.4375 C52.36732856 166.53383696 58.8095015 154.92093109 61.75 139 C64.92780034 122.24432547 73.10252133 110.98415991 85.3125 99.4375 C80.07879236 94.20379236 68.58652295 93.83890929 61.3125 93.4375 C60.39726562 93.38464844 59.48203125 93.33179687 58.5390625 93.27734375 C35.46370382 92.60891396 11.5489162 98.89685246 -4.68359375 116.05859375 Z M-97.6875 193.4375 C-98.3475 194.4275 -99.0075 195.4175 -99.6875 196.4375 C-98.9140625 196.78941406 -98.140625 197.14132813 -97.34375 197.50390625 C-86.16536115 202.80257324 -80.28384288 208.20545901 -73.609375 218.56640625 C-67.80245711 227.24137506 -59.99508175 232.29819058 -49.6875 234.4375 C-42.93735209 235.11251479 -36.30875996 233.29085885 -30.9375 229.05859375 C-29.42402507 227.59144371 -29.42402507 227.59144371 -27.6875 225.4375 C-29.03431718 221.39704846 -31.67237806 220.15962601 -35.125 218 C-35.76026611 217.59966553 -36.39553223 217.19933105 -37.05004883 216.78686523 C-45.59452883 211.51652903 -53.75211112 208.87303147 -63.6875 207.4375 C-65.0128012 200.08810241 -65.0128012 200.08810241 -63.6875 197.4375 C-58.42634418 194.80692209 -52.30564687 196.79542676 -47 198.5 C-46.3088208 198.7175293 -45.6176416 198.93505859 -44.90551758 199.15917969 C-39.12720023 201.08150836 -34.19151809 203.71770921 -29.04296875 206.984375 C-26.67654499 208.56835428 -26.67654499 208.56835428 -23.6875 209.4375 C-24.01851792 201.82408792 -27.39818122 195.6843368 -32.8046875 190.34765625 C-52.12962031 174.53330812 -78.22064874 181.61660653 -97.6875 193.4375 Z M-21.6875 331.4375 C-22.18813965 331.92444336 -22.6887793 332.41138672 -23.20458984 332.91308594 C-26.75047302 336.3719214 -30.28245621 339.83950373 -33.6875 343.4375 C-33.6875 343.7675 -33.6875 344.0975 -33.6875 344.4375 C-11.2475 344.4375 11.1925 344.4375 34.3125 344.4375 C21.45279706 328.27426843 21.45279706 328.27426843 3.1484375 320.19921875 C-7.57276071 319.87588103 -14.21174965 324.12959897 -21.6875 331.4375 Z M-74.6875 357.4375 C-74.6875 362.3875 -74.6875 367.3375 -74.6875 372.4375 C-25.1875 372.4375 24.3125 372.4375 75.3125 372.4375 C75.3125 367.4875 75.3125 362.5375 75.3125 357.4375 C25.8125 357.4375 -23.6875 357.4375 -74.6875 357.4375 Z M-55.6875 385.4375 C-55.6875 391.7075 -55.6875 397.9775 -55.6875 404.4375 C-18.7275 404.4375 18.2325 404.4375 56.3125 404.4375 C56.3125 398.1675 56.3125 391.8975 56.3125 385.4375 C19.3525 385.4375 -17.6075 385.4375 -55.6875 385.4375 Z M-55.6875 417.4375 C-54.84552262 425.46807214 -54.84552262 425.46807214 -50.6875 431.4375 C-44.96426743 435.75912459 -40.76479927 436.58979767 -33.76293945 436.61450195 C-32.95605179 436.62107315 -32.14916412 436.62764435 -31.31782532 436.63441467 C-28.64547633 436.6541361 -25.97318357 436.665809 -23.30078125 436.67578125 C-22.38678244 436.67985678 -21.47278362 436.6839323 -20.53108788 436.68813133 C-15.69138185 436.70898926 -10.85170414 436.72329099 -6.01196289 436.73266602 C-1.02305156 436.74371711 3.96541211 436.77810277 8.95416546 436.81783772 C12.79845485 436.84403786 16.64263824 436.85236097 20.48700905 436.85594749 C22.32533598 436.86080632 24.16365841 436.8724002 26.00189781 436.89098549 C28.5819434 436.91544487 31.16083974 436.91439955 33.7409668 436.9074707 C34.49295349 436.92028076 35.24494019 436.93309082 36.01971436 436.94628906 C41.52081654 436.89274837 45.69603021 435.44955237 50.3125 432.4375 C54.89213831 427.73734489 56.3125 423.97215777 56.3125 417.4375 C19.3525 417.4375 -17.6075 417.4375 -55.6875 417.4375 Z M-21.6875 449.4375 C-23.24923762 463.55251535 -23.24923762 463.55251535 -17.6875 469.4375 C-12.41990812 471.71644631 -5.37545524 470.62216602 0.25 470.625 C1.52552734 470.63724609 2.80105469 470.64949219 4.11523438 470.66210938 C5.95891602 470.66500977 5.95891602 470.66500977 7.83984375 470.66796875 C9.52194946 470.67413208 9.52194946 470.67413208 11.23803711 470.68041992 C14.41843643 470.42912974 16.51217191 469.95310908 19.3125 468.4375 C23.8125 463.27083333 23.8125 463.27083333 22.3125 449.4375 C7.7925 449.4375 -6.7275 449.4375 -21.6875 449.4375 Z " fill="#ffffff" transform="translate(255.6875,14.5625)"/>
</svg>
