<?xml version="1.0" encoding="UTF-8"?>
<svg version="1.1" xmlns="http://www.w3.org/2000/svg" width="512" height="512">
<path d="M0 0 C18.73285716 -0.13909679 37.4655677 -0.24607093 56.19883537 -0.31087303 C64.8977101 -0.34176618 73.59625737 -0.38385921 82.29492188 -0.45263672 C89.87972908 -0.51257856 97.46429905 -0.55118215 105.04933655 -0.56453097 C109.06295346 -0.57232994 113.07589191 -0.59056259 117.08929062 -0.63438034 C120.87334895 -0.67535625 124.65645475 -0.68761955 128.44071388 -0.67864609 C129.82336557 -0.68028569 131.20605184 -0.69207273 132.58851051 -0.71523285 C144.77585101 -0.9092491 151.19922048 2.30090118 159.99220276 10.50445557 C161.77134516 12.26912708 163.53974976 14.04466957 165.29907227 15.82910156 C166.28328325 16.81280252 167.2683711 17.79562681 168.2542572 18.77764893 C170.9032502 21.42126945 173.53976273 24.07701416 176.17391706 26.73540974 C178.93981083 29.52273376 181.71678196 32.29898096 184.49241638 35.07659912 C189.14297495 39.73358215 193.78609463 44.3978715 198.42407227 49.06738281 C204.38066401 55.06441957 210.34880063 61.04982567 216.32084751 67.03146744 C221.46075702 72.17966689 226.59618832 77.33232637 231.73047519 82.48613262 C232.83183288 83.59154003 233.93334601 84.6967926 235.03501248 85.80189228 C238.1695037 88.94615493 241.30162242 92.09273849 244.42968178 95.24340057 C245.8316689 96.65444845 247.23607207 98.06309449 248.64053345 99.47167969 C249.46887192 100.30717346 250.29721039 101.14266724 251.15065002 102.003479 C251.87417443 102.73127689 252.59769884 103.45907478 253.34314823 104.20892715 C256.89238331 108.04568473 256.16230903 112.23754467 256.17700195 117.18798828 C256.18357315 118.14103348 256.19014435 119.09407867 256.19691467 120.07600403 C256.2166789 123.24077427 256.22831899 126.40549693 256.23828125 129.5703125 C256.24235678 130.65071682 256.2464323 131.73112114 256.25063133 132.84426498 C256.27150823 138.56577108 256.28580133 144.28725309 256.29516602 150.00878906 C256.30621661 155.91355726 256.34059658 161.81794717 256.38033772 167.72258186 C256.40651435 172.2660084 256.41485895 176.80934511 256.41844749 181.35284042 C256.42331295 183.52888409 256.43492573 185.70492375 256.45348549 187.88089371 C256.47789213 190.93277935 256.47690852 193.9836907 256.4699707 197.03564453 C256.48278076 197.92946335 256.49559082 198.82328217 256.50878906 199.7441864 C256.45121252 206.71846387 254.66295569 211.96115991 250.03515625 217.2421875 C249.38417969 217.78101563 248.73320312 218.31984375 248.0625 218.875 C247.41410156 219.42929687 246.76570313 219.98359375 246.09765625 220.5546875 C241.99469502 223.38168127 238.42906738 224.2506041 233.48046875 224.1953125 C231.9480957 224.18564453 231.9480957 224.18564453 230.38476562 224.17578125 C228.80211914 224.15064453 228.80211914 224.15064453 227.1875 224.125 C226.11306641 224.11597656 225.03863281 224.10695313 223.93164062 224.09765625 C221.28753146 224.07415306 218.64388128 224.04129575 216 224 C215.89985596 224.62616211 215.79971191 225.25232422 215.6965332 225.89746094 C214.63610229 231.88378272 213.00589324 236.87859895 210.1875 242.25 C209.85685547 242.91773438 209.52621094 243.58546875 209.18554688 244.2734375 C202.04293687 258.25705018 189.40353425 266.28660154 174.74090093 271.06127918 C170.98272007 272.00433613 167.83534799 272.24854764 163.96980381 272.24609566 C162.95732704 272.24955719 162.95732704 272.24955719 161.92439619 272.25308865 C159.6703269 272.25836808 157.41654531 272.24942189 155.16249084 272.24050903 C153.52715263 272.24138152 151.8918147 272.2431333 150.25647825 272.24568737 C145.76863615 272.25015637 141.28088963 272.24216332 136.79305971 272.23213124 C131.95128343 272.22349264 127.10951253 272.2264172 122.26773071 272.22793579 C113.88097418 272.22898438 105.49424878 272.22271047 97.10750008 272.21146011 C84.98167979 272.19520458 72.85587454 272.18999705 60.73004454 272.18748413 C41.05659343 272.18310711 21.3831589 272.16979782 1.7097168 272.15087891 C-17.40095944 272.13252029 -36.51163118 272.11836369 -55.62231445 272.10986328 C-56.80033864 272.10933783 -57.97836283 272.10881239 -59.19208472 272.10827102 C-65.1018984 272.10566094 -71.01171211 272.10313352 -76.92152584 272.10064721 C-125.94769546 272.0799145 -174.97384667 272.04454008 -224 272 C-224 266.72 -224 261.44 -224 256 C-165.095 255.505 -165.095 255.505 -105 255 C-107.31 252.36 -109.62 249.72 -112 247 C-113.92578125 243.7265625 -113.92578125 243.7265625 -115.3125 240.625 C-115.78300781 239.60664063 -116.25351563 238.58828125 -116.73828125 237.5390625 C-118.32213239 233.09643361 -119.18625342 228.63690754 -120 224 C-120.65484375 224.02094727 -121.3096875 224.04189453 -121.984375 224.06347656 C-124.98942328 224.14730383 -127.99422464 224.19886895 -131 224.25 C-132.02996094 224.28351563 -133.05992187 224.31703125 -134.12109375 224.3515625 C-141.96137252 224.45143866 -147.29192727 223.24940868 -153.2421875 218.03515625 C-153.78101563 217.38417969 -154.31984375 216.73320312 -154.875 216.0625 C-155.42929688 215.41410156 -155.98359375 214.76570312 -156.5546875 214.09765625 C-159.86929635 209.28699421 -160.28411036 204.89968399 -160.22705078 199.18041992 C-160.22734283 198.40915771 -160.22763489 197.63789551 -160.22793579 196.84326172 C-160.22654752 194.30554781 -160.21101015 191.76813109 -160.1953125 189.23046875 C-160.19158058 187.46641704 -160.18873445 185.70236325 -160.18673706 183.93830872 C-160.1791147 179.30390665 -160.15947821 174.66963069 -160.1373291 170.03527832 C-160.11684057 165.30283311 -160.10772891 160.57036744 -160.09765625 155.83789062 C-160.07623098 146.55852954 -160.04106023 137.279295 -160 128 C-154.72 128 -149.44 128 -144 128 C-143.970271 131.2323645 -143.970271 131.2323645 -143.93994141 134.5300293 C-143.872995 141.65473811 -143.79535603 148.77930162 -143.71247292 155.90384197 C-143.66255522 160.22289005 -143.61622481 164.54191421 -143.578125 168.86108398 C-143.54121496 173.03035098 -143.49483954 177.19941563 -143.44193649 181.36850929 C-143.42342291 182.95805113 -143.40830375 184.54763629 -143.39665604 186.13724327 C-143.37974141 188.36603837 -143.3506945 190.59437314 -143.31884766 192.82299805 C-143.30552399 194.09096725 -143.29220032 195.35893646 -143.2784729 196.66532898 C-143.0083064 199.90053213 -142.49536043 202.13343753 -141 205 C-136.90390697 207.47741433 -132.35333787 207.42485682 -127.6875 207.625 C-126.57665039 207.68300781 -126.57665039 207.68300781 -125.44335938 207.7421875 C-123.62928691 207.83581705 -121.81467884 207.91896851 -120 208 C-119.92265625 207.195625 -119.92265625 207.195625 -119.84375 206.375 C-117.78791852 192.17107344 -109.93820692 179.3557608 -98.625 170.8125 C-87.95015164 163.35019035 -77.44752049 159.40777936 -64.3125 159.5 C-63.35569336 159.50572021 -62.39888672 159.51144043 -61.41308594 159.51733398 C-48.45029175 159.84042478 -38.1358007 163.76235834 -28 172 C-27.16726562 172.62648438 -26.33453125 173.25296875 -25.4765625 173.8984375 C-15.05485696 182.74209299 -10.59259547 195.03702267 -8 208 C28.96 208 65.92 208 104 208 C104.66 204.7 105.32 201.4 106 198 C107.17010845 195.14588412 108.32794582 192.52321746 109.75 189.8125 C110.10924561 189.11833984 110.46849121 188.42417969 110.83862305 187.70898438 C117.77679552 174.62778338 129.52010397 165.97489691 143.578125 161.42578125 C148.99374998 159.83860522 154.06486714 159.46052364 159.6875 159.5 C160.64430664 159.50572021 161.60111328 159.51144043 162.58691406 159.51733398 C175.54970825 159.84042478 185.8641993 163.76235834 196 172 C196.83273437 172.62648438 197.66546875 173.25296875 198.5234375 173.8984375 C208.569915 182.42368182 214.14013521 195.20301987 216 208 C218.56336254 207.88553728 221.12513445 207.75880499 223.6875 207.625 C224.7693457 207.57859375 224.7693457 207.57859375 225.87304688 207.53125 C231.68538256 207.21886474 231.68538256 207.21886474 237 205 C238.97182708 201.13865191 239.26796601 197.85687201 239.31884766 193.55737305 C239.33871735 192.27642258 239.35858704 190.99547211 239.37905884 189.67570496 C239.39093344 188.28771131 239.4025964 186.89971583 239.4140625 185.51171875 C239.43278405 184.08395785 239.4523582 182.6562079 239.4727478 181.22846985 C239.52397101 177.48194854 239.56364894 173.73539139 239.60089111 169.9887085 C239.64099253 166.16100268 239.69205679 162.33344465 239.7421875 158.50585938 C239.83883049 151.00400783 239.92327213 143.50208448 240 136 C239.35616049 136.00368717 238.71232098 136.00737434 238.04897118 136.01117325 C222.37461203 136.0995549 206.70033969 136.16572438 191.02579308 136.20724869 C183.44565246 136.22786389 175.8656783 136.25596436 168.28564453 136.30175781 C161.67798965 136.34165774 155.07045533 136.36744039 148.46268332 136.37635398 C144.96465925 136.38156347 141.46698004 136.39378531 137.96906662 136.42292023 C134.06183209 136.45519976 130.15493332 136.45595737 126.24755859 136.45410156 C125.09093719 136.46848267 123.9343158 136.48286377 122.74264526 136.49768066 C116.69485719 136.46655586 112.60794971 136.35217576 108 132 C104.06045504 127.40663551 103.41942085 123.57350416 103.48242188 117.703125 C103.4754126 116.89258667 103.46840332 116.08204834 103.46118164 115.24694824 C103.44364796 112.58094518 103.45520753 109.91601292 103.46875 107.25 C103.46605375 105.38964638 103.46217021 103.52929413 103.45715332 101.66894531 C103.45126455 97.77525377 103.45980116 93.88192996 103.47851562 89.98828125 C103.50130484 85.00476814 103.48817842 80.02211677 103.46422577 75.03863525 C103.44975097 71.19866478 103.45438149 67.3588976 103.46473694 63.5189209 C103.46739958 61.68176165 103.46415078 59.84458377 103.45481873 58.00744629 C103.44462527 55.43676066 103.46019229 52.86745799 103.48242188 50.296875 C103.47432495 49.54241089 103.46622803 48.78794678 103.45788574 48.01062012 C103.54003546 42.8659941 104.77415512 39.97127118 108 36 C112.95767867 31.65510894 117.04153225 31.39978815 123.3359375 31.390625 C124.21528961 31.37408875 125.09464172 31.35755249 126.00064087 31.34051514 C128.79216592 31.29217086 131.58314676 31.27069465 134.375 31.25 C136.27476676 31.22182892 138.17450832 31.1918999 140.07421875 31.16015625 C144.716101 31.08641566 149.35768355 31.03675827 154 31 C151.92569173 28.84475774 149.84146179 26.70098609 147.75 24.5625 C147.16347656 23.95083984 146.57695312 23.33917969 145.97265625 22.70898438 C145.39902344 22.12568359 144.82539063 21.54238281 144.234375 20.94140625 C143.71069336 20.40201416 143.18701172 19.86262207 142.64746094 19.30688477 C138.74975204 16.21494112 133.86762345 16.83155174 129.11035156 16.79467773 C127.90529779 16.77962865 127.90529779 16.77962865 126.67589951 16.76427555 C124.08083713 16.73294608 121.48575945 16.70814232 118.890625 16.68359375 C117.28629057 16.66518518 115.681961 16.64634823 114.07763672 16.6270752 C108.13514863 16.55869099 102.19256747 16.49859758 96.25 16.4375 C76.32625 16.2209375 76.32625 16.2209375 56 16 C56 55.6 56 95.2 56 136 C50.72 136 45.44 136 40 136 C40 96.4 40 56.8 40 16 C26.8 16 13.6 16 0 16 C0 10.72 0 5.44 0 0 Z M120 48 C120 71.76 120 95.52 120 120 C159.6 120 199.2 120 240 120 C238.92409468 114.62047338 237.06148965 112.21659822 233.5612793 108.28198242 C232.99018275 107.62795283 232.41908621 106.97392324 231.83068371 106.30007458 C224.3092636 97.75141356 216.54656897 89.42540458 208.6875 81.1875 C207.93762691 80.39867306 207.18775383 79.60984612 206.41515732 78.79711533 C182.2245826 52.67604529 182.2245826 52.67604529 149.25634766 43.15283203 C139.40988041 44.02541827 129.70778303 46.13632819 120 48 Z M-90.32421875 185.75 C-97.08912712 191.93505908 -102.63031217 201.37589666 -103.23828125 210.625 C-103.55051711 222.81199985 -102.08675037 232.30349054 -93.97265625 241.93359375 C-86.00158471 250.28348849 -77.38184503 254.94411386 -65.77368164 255.52197266 C-54.67790842 255.72534004 -46.24414199 253.03567397 -37.625 245.8125 C-30.21379055 238.65150824 -25.58231883 230.58155697 -24.6640625 220.203125 C-24.5313013 206.76769166 -27.29772758 196.94653053 -36.84765625 187.09375 C-52.23142522 172.65808608 -73.87666097 173.3659565 -90.32421875 185.75 Z M131.25 188.125 C122.68877649 197.19340499 120.50398743 207.92501099 120.72265625 219.87890625 C121.23067755 230.90119928 126.90164091 239.23654154 134.625 246.6875 C144.07396954 254.44597594 154.17996547 256.2258153 166.04345703 255.23925781 C176.76523668 253.92813427 185.00070904 247.83448227 191.8125 239.75 C199.00027609 229.78740803 200.55735719 218.99397479 199 207 C196.36769169 195.96455362 189.35392363 187.44902016 179.8125 181.5 C163.2364479 172.4608318 145.20937018 175.65584581 131.25 188.125 Z M-8 224 C-9.65 228.95 -11.3 233.9 -13 239 C-16.35904523 245.78807056 -19.10755813 250.12906976 -24 256 C23.52 256 71.04 256 120 256 C118.02 253.36 116.04 250.72 114 248 C112.70192801 245.74664785 111.46685923 243.45524496 110.3125 241.125 C109.75175781 240.01382813 109.19101562 238.90265625 108.61328125 237.7578125 C106.70514825 233.31320247 105.38987086 228.63290285 104 224 C67.04 224 30.08 224 -8 224 Z " fill="#ffffff" transform="translate(240,168)"/>
<path d="M0 0 C22.17317742 16.96015986 36.72888473 39.72074954 41.9453125 67.23828125 C43.71532895 83.87974431 43.5665347 101.16347882 38.36328125 117.16796875 C38.04979736 118.13814941 38.04979736 118.13814941 37.72998047 119.12792969 C32.45971995 134.80053962 23.89884237 147.49405007 12.36328125 159.16796875 C11.72003906 159.88339844 11.07679688 160.59882813 10.4140625 161.3359375 C-4.40800903 177.44408899 -28.88045528 188.04858358 -50.60253906 189.3449707 C-65.39004232 189.63612722 -79.46686893 189.77475849 -93.63671875 185.16796875 C-94.60689941 184.85448486 -94.60689941 184.85448486 -95.59667969 184.53466797 C-111.26928962 179.26440745 -123.96280007 170.70352987 -135.63671875 159.16796875 C-136.70986328 158.20310547 -136.70986328 158.20310547 -137.8046875 157.21875 C-153.52792373 142.75086197 -164.58427811 118.34833643 -165.8137207 97.11035156 C-166.45191398 63.37509879 -159.971046 36.58655018 -136.20239258 11.34790039 C-100.50591212 -25.48333098 -41.56673966 -28.88118652 0 0 Z M-121.63671875 21.16796875 C-122.26835938 21.71839844 -122.9 22.26882812 -123.55078125 22.8359375 C-138.56386898 36.71790218 -147.9427729 58.08883886 -149.05078125 78.29296875 C-149.8902348 103.99316198 -143.23793076 126.0618204 -125.63671875 145.16796875 C-124.81300781 146.1115625 -124.81300781 146.1115625 -123.97265625 147.07421875 C-110.11262991 162.09493695 -88.62008324 171.57648933 -68.40625 172.546875 C-43.123624 173.2413919 -21.86038859 166.86433095 -2.63671875 150.16796875 C-1.89035156 149.52214844 -1.14398438 148.87632812 -0.375 148.2109375 C14.88365696 133.97152285 24.74629526 112.68265344 25.7421875 91.9375 C26.4367044 66.654874 20.05964345 45.39163859 3.36328125 26.16796875 C2.71746094 25.42160156 2.07164062 24.67523438 1.40625 23.90625 C-13.95193657 7.4487406 -36.75251176 -1.85247021 -59.015625 -2.86328125 C-82.69910024 -2.65889311 -104.04977567 5.18780618 -121.63671875 21.16796875 Z " fill="#ffffff" transform="translate(181.63671875,90.83203125)"/>
<path d="M0 0 C2.44225447 1.66159248 4.74768159 3.38773224 7.0390625 5.25 C7.86148438 5.86875 8.68390625 6.4875 9.53125 7.125 C18.99299063 15.14242508 26.1110494 27.93495816 27.23193359 40.39379883 C27.6586692 52.64628342 27.28685168 62.96091108 22.0390625 74.25 C21.72791504 74.91950684 21.41676758 75.58901367 21.09619141 76.27880859 C12.08365439 95.1565972 -0.54185125 111.40062643 -14.66015625 126.7265625 C-16.64628568 128.904898 -18.56689633 131.11689739 -20.4609375 133.375 C-23.53758486 136.91314446 -24.01307005 137.13754115 -28.6484375 137.6875 C-33.06337505 137.61577719 -35.15417905 136.07618066 -38.26171875 133.06640625 C-41.25627329 129.86533071 -44.13450157 126.60087228 -46.9609375 123.25 C-47.7859375 122.31285156 -48.6109375 121.37570313 -49.4609375 120.41015625 C-69.04330215 98.03333906 -86.7116559 71.52940934 -85.19921875 40.86474609 C-84.23878835 30.32559692 -79.57459377 21.38760838 -72.9609375 13.25 C-72.3421875 12.42757812 -71.7234375 11.60515625 -71.0859375 10.7578125 C-54.25015514 -9.11088653 -22.01325939 -13.01047521 0 0 Z M-60.7734375 25.5 C-67.62326455 34.96231923 -69.29144913 44.71104962 -67.9609375 56.25 C-62.53285016 79.16303226 -45.16171119 98.97075318 -29.9609375 116.25 C-24.02122491 113.83699176 -20.77460102 108.16298565 -16.9609375 103.25 C-16.25541748 102.35474609 -16.25541748 102.35474609 -15.53564453 101.44140625 C-1.82599398 84.00182433 12.76632376 64.58609402 10.0390625 41.25 C7.7084253 30.46052075 1.32641725 22.16197486 -7.53515625 15.7578125 C-25.76365059 4.42737963 -47.34465214 9.56222714 -60.7734375 25.5 Z " fill="#ffffff" transform="translate(148.9609375,110.75)"/>
<path d="M0 0 C5.82485779 3.51996782 10.54466582 8.98962934 12.5625 15.5 C13.36764105 23.33608208 13.68710392 31.11922577 8.5625 37.5 C3.75801361 42.54521222 -0.59927055 46.10562995 -7.70703125 46.8359375 C-16.22326573 46.92983204 -22.11345494 46.6177288 -28.40234375 40.62890625 C-34.7841668 33.72505269 -35.91792252 28.29832071 -35.7421875 18.9453125 C-35.04689797 11.08319245 -31.38995981 6.95041296 -25.53515625 1.9453125 C-18.47077988 -2.92213491 -7.84396301 -3.47595223 0 0 Z M-16.8125 17.125 C-18.92456506 20.21186432 -19.04945145 21.8282913 -18.4375 25.5 C-16.9375 28 -16.9375 28 -14.4375 29.5 C-10.7657913 30.11195145 -9.14936432 29.98706506 -6.0625 27.875 C-3.95043494 24.78813568 -3.82554855 23.1717087 -4.4375 19.5 C-5.9375 17 -5.9375 17 -8.4375 15.5 C-12.1092087 14.88804855 -13.72563568 15.01293494 -16.8125 17.125 Z " fill="#ffffff" transform="translate(131.4375,137.5)"/>
<path d="M0 0 C13.2 0 26.4 0 40 0 C40 5.28 40 10.56 40 16 C26.8 16 13.6 16 0 16 C0 10.72 0 5.44 0 0 Z " fill="#ffffff" transform="translate(16,352)"/>
<path d="M0 0 C10.56 0 21.12 0 32 0 C32 5.28 32 10.56 32 16 C21.44 16 10.88 16 0 16 C0 10.72 0 5.44 0 0 Z " fill="#ffffff" transform="translate(320,320)"/>
<path d="M0 0 C7.92 0 15.84 0 24 0 C24 5.28 24 10.56 24 16 C16.08 16 8.16 16 0 16 C0 10.72 0 5.44 0 0 Z " fill="#ffffff" transform="translate(32,320)"/>
<path d="M0 0 C5.28 0 10.56 0 16 0 C16 5.28 16 10.56 16 16 C10.72 16 5.44 16 0 16 C0 10.72 0 5.44 0 0 Z " fill="#ffffff" transform="translate(392,376)"/>
<path d="M0 0 C5.28 0 10.56 0 16 0 C16 5.28 16 10.56 16 16 C10.72 16 5.44 16 0 16 C0 10.72 0 5.44 0 0 Z " fill="#ffffff" transform="translate(168,376)"/>
<path d="M0 0 C5.28 0 10.56 0 16 0 C16 5.28 16 10.56 16 16 C10.72 16 5.44 16 0 16 C0 10.72 0 5.44 0 0 Z " fill="#ffffff" transform="translate(40,288)"/>
</svg>
